%TF.GenerationSoftware,Altium Limited,Altium Designer,21.5.1 (32)*%
G04 Layer_Color=128*
%FSLAX45Y45*%
%MOMM*%
%TF.SameCoordinates,06A15EC1-A366-40CD-93CB-9F33A424241D*%
%TF.FilePolarity,Positive*%
%TF.FileFunction,Drillmap*%
%TF.Part,Single*%
G01*
G75*
%TA.AperFunction,NonConductor*%
%ADD55C,0.12700*%
D55*
X3056000Y5804000D02*
X3136000D01*
X3096000Y5764000D02*
Y5844000D01*
X3310000Y5804000D02*
X3390000D01*
X3350000Y5764000D02*
Y5844000D01*
X3310000Y5550000D02*
X3390000D01*
X3350000Y5510000D02*
Y5590000D01*
X3056000Y5550000D02*
X3136000D01*
X3096000Y5510000D02*
Y5590000D01*
X5909999Y2125000D02*
X5989999D01*
X5949999Y2085000D02*
Y2165000D01*
X5909999Y2379000D02*
X5989999D01*
X5949999Y2339000D02*
Y2419000D01*
X6163999Y2379000D02*
X6243999D01*
X6203999Y2339000D02*
Y2419000D01*
X6163999Y2125000D02*
X6243999D01*
X6203999Y2085000D02*
Y2165000D01*
X3681000Y5804000D02*
X3761000D01*
X3721000Y5764000D02*
Y5844000D01*
X3935000Y5804000D02*
X4015000D01*
X3975000Y5764000D02*
Y5844000D01*
X3935000Y5550000D02*
X4015000D01*
X3975000Y5510000D02*
Y5590000D01*
X3681000Y5550000D02*
X3761000D01*
X3721000Y5510000D02*
Y5590000D01*
X4331000Y5804000D02*
X4411000D01*
X4371000Y5764000D02*
Y5844000D01*
X4585000Y5804000D02*
X4665000D01*
X4625000Y5764000D02*
Y5844000D01*
X4585000Y5550000D02*
X4665000D01*
X4625000Y5510000D02*
Y5590000D01*
X4331000Y5550000D02*
X4411000D01*
X4371000Y5510000D02*
Y5590000D01*
X3209999Y2125000D02*
X3289999D01*
X3249999Y2085000D02*
Y2165000D01*
X3209999Y2379000D02*
X3289999D01*
X3249999Y2339000D02*
Y2419000D01*
X3463999Y2379000D02*
X3543999D01*
X3503999Y2339000D02*
Y2419000D01*
X3463999Y2125000D02*
X3543999D01*
X3503999Y2085000D02*
Y2165000D01*
X2306000Y2125000D02*
X2386000D01*
X2346000Y2085000D02*
Y2165000D01*
X2306000Y2379000D02*
X2386000D01*
X2346000Y2339000D02*
Y2419000D01*
X2560000Y2379000D02*
X2640000D01*
X2600000Y2339000D02*
Y2419000D01*
X2560000Y2125000D02*
X2640000D01*
X2600000Y2085000D02*
Y2165000D01*
X5009999Y2125000D02*
X5089999D01*
X5049999Y2085000D02*
Y2165000D01*
X5009999Y2379000D02*
X5089999D01*
X5049999Y2339000D02*
Y2419000D01*
X5263999Y2379000D02*
X5343999D01*
X5303999Y2339000D02*
Y2419000D01*
X5263999Y2125000D02*
X5343999D01*
X5303999Y2085000D02*
Y2165000D01*
X4109999Y2125000D02*
X4189999D01*
X4149999Y2085000D02*
Y2165000D01*
X4109999Y2379000D02*
X4189999D01*
X4149999Y2339000D02*
Y2419000D01*
X4363999Y2379000D02*
X4443999D01*
X4403999Y2339000D02*
Y2419000D01*
X4363999Y2125000D02*
X4443999D01*
X4403999Y2085000D02*
Y2165000D01*
X6635000Y5078999D02*
X6715000D01*
X6675000Y5038999D02*
Y5118999D01*
X6889000Y5078999D02*
X6969000D01*
X6929000Y5038999D02*
Y5118999D01*
X6889000Y4824999D02*
X6969000D01*
X6929000Y4784999D02*
Y4864999D01*
X6635000Y4824999D02*
X6715000D01*
X6675000Y4784999D02*
Y4864999D01*
X6381000Y5078999D02*
X6461000D01*
X6421000Y5038999D02*
Y5118999D01*
X6381000Y4824999D02*
X6461000D01*
X6421000Y4784999D02*
Y4864999D01*
X5614000Y1554000D02*
X5694000D01*
X5654000Y1514000D02*
Y1594000D01*
X5868000Y1554000D02*
X5948000D01*
X5908000Y1514000D02*
Y1594000D01*
X5868000Y1300000D02*
X5948000D01*
X5908000Y1260000D02*
Y1340000D01*
X5614000Y1300000D02*
X5694000D01*
X5654000Y1260000D02*
Y1340000D01*
X5360000Y1554000D02*
X5440000D01*
X5400000Y1514000D02*
Y1594000D01*
X5360000Y1300000D02*
X5440000D01*
X5400000Y1260000D02*
Y1340000D01*
X4610000Y1550000D02*
X4690000D01*
X4650000Y1510000D02*
Y1590000D01*
X4864000Y1550000D02*
X4944000D01*
X4904000Y1510000D02*
Y1590000D01*
X4864000Y1296000D02*
X4944000D01*
X4904000Y1256000D02*
Y1336000D01*
X4610000Y1296000D02*
X4690000D01*
X4650000Y1256000D02*
Y1336000D01*
X4356000Y1550000D02*
X4436000D01*
X4396000Y1510000D02*
Y1590000D01*
X4356000Y1296000D02*
X4436000D01*
X4396000Y1256000D02*
Y1336000D01*
X3535000Y1554000D02*
X3615000D01*
X3575000Y1514000D02*
Y1594000D01*
X3789000Y1554000D02*
X3869000D01*
X3829000Y1514000D02*
Y1594000D01*
X3789000Y1300000D02*
X3869000D01*
X3829000Y1260000D02*
Y1340000D01*
X3535000Y1300000D02*
X3615000D01*
X3575000Y1260000D02*
Y1340000D01*
X3281000Y1554000D02*
X3361000D01*
X3321000Y1514000D02*
Y1594000D01*
X3281000Y1300000D02*
X3361000D01*
X3321000Y1260000D02*
Y1340000D01*
X6889000Y4475000D02*
X6969000D01*
X6929000Y4435000D02*
Y4515000D01*
X6635000Y4475000D02*
X6715000D01*
X6675000Y4435000D02*
Y4515000D01*
X6381000Y4475000D02*
X6461000D01*
X6421000Y4435000D02*
Y4515000D01*
X6127000Y4475000D02*
X6207000D01*
X6167000Y4435000D02*
Y4515000D01*
X2440000Y1550000D02*
X2760000D01*
X2600000Y1390000D02*
Y1710000D01*
X6440000Y1550000D02*
X6760000D01*
X6600000Y1390000D02*
Y1710000D01*
X2440000Y5550000D02*
X2760000D01*
X2600000Y5390000D02*
Y5710000D01*
X6440000Y5550000D02*
X6760000D01*
X6600000Y5390000D02*
Y5710000D01*
X2593500Y2768600D02*
X2613500D01*
X2603500Y2758600D02*
Y2778600D01*
X2580800Y2984500D02*
X2600800D01*
X2590800Y2974500D02*
Y2994500D01*
X5578000Y5892800D02*
X5598000D01*
X5588000Y5882800D02*
Y5902800D01*
X5031900Y5702300D02*
X5051900D01*
X5041900Y5692300D02*
Y5712300D01*
X4600100Y4864100D02*
X4620100D01*
X4610100Y4854100D02*
Y4874100D01*
X4356300Y4876800D02*
X4381300D01*
X4368800Y4864300D02*
Y4889300D01*
X3759400Y4826000D02*
X3784400D01*
X3771900Y4813500D02*
Y4838500D01*
X4968400Y4686300D02*
X4988400D01*
X4978400Y4676300D02*
Y4696300D01*
X4168300Y5029200D02*
X4188300D01*
X4178300Y5019200D02*
Y5039200D01*
X5867560Y3919220D02*
X5887560D01*
X5877560Y3909220D02*
Y3929220D01*
X5030000Y5940000D02*
X5050000D01*
X5040000Y5930000D02*
Y5950000D01*
X4210000Y4200000D02*
X4230000D01*
X4220000Y4190000D02*
Y4210000D01*
X3910000Y4560000D02*
X3930000D01*
X3920000Y4550000D02*
Y4570000D01*
X4350000Y4550000D02*
X4370000D01*
X4360000Y4540000D02*
Y4560000D01*
X4190000Y3180000D02*
X4210000D01*
X4200000Y3170000D02*
Y3190000D01*
X4190000Y3700000D02*
X4210000D01*
X4200000Y3690000D02*
Y3710000D01*
X5690000Y4170000D02*
X5710000D01*
X5700000Y4160000D02*
Y4180000D01*
X5365000Y4575000D02*
X5385000D01*
X5375000Y4565000D02*
Y4585000D01*
X5470000Y4560000D02*
X5490000D01*
X5480000Y4550000D02*
Y4570000D01*
X5322501Y4310000D02*
X5342501D01*
X5332501Y4300000D02*
Y4320000D01*
X4680000Y4430000D02*
X4700000D01*
X4690000Y4420000D02*
Y4440000D01*
X6590000Y3010000D02*
X6610000D01*
X6600000Y3000000D02*
Y3020000D01*
X3517500Y5280000D02*
X3542500D01*
X3530000Y5267500D02*
Y5292500D01*
X4290000Y3150000D02*
X4310000D01*
X4300000Y3140000D02*
Y3160000D01*
X6980000Y2830000D02*
X7000000D01*
X6990000Y2820000D02*
Y2840000D01*
X6090000Y5520000D02*
X6110000D01*
X6100000Y5510000D02*
Y5530000D01*
X5290000Y4880000D02*
X5310000D01*
X5300000Y4870000D02*
Y4890000D01*
X4930000Y4080000D02*
X4950000D01*
X4940000Y4070000D02*
Y4090000D01*
X4910000Y3760000D02*
X4930000D01*
X4920000Y3750000D02*
Y3770000D01*
X6220000Y5850000D02*
X6240000D01*
X6230000Y5840000D02*
Y5860000D01*
X6060000Y3890000D02*
X6080000D01*
X6070000Y3880000D02*
Y3900000D01*
X5717100Y3272900D02*
X5737100D01*
X5727100Y3262900D02*
Y3282900D01*
X5717100Y3422900D02*
X5737100D01*
X5727100Y3412900D02*
Y3432900D01*
X6935500Y2345500D02*
X6955500D01*
X6945500Y2335500D02*
Y2355500D01*
X6465500Y2345500D02*
X6485500D01*
X6475500Y2335500D02*
Y2355500D01*
X6690000Y2200000D02*
X6710000D01*
X6700000Y2190000D02*
Y2210000D01*
X6525000Y3945000D02*
X6545000D01*
X6535000Y3935000D02*
Y3955000D01*
X5620000Y2610000D02*
X5640000D01*
X5630000Y2600000D02*
Y2620000D01*
X3915002Y3265002D02*
X3935002D01*
X3925002Y3255002D02*
Y3275002D01*
X4660000Y4664998D02*
X4680000D01*
X4670000Y4654998D02*
Y4674998D01*
X5190000Y2630000D02*
X5210000D01*
X5200000Y2620000D02*
Y2640000D01*
X4965000Y5450000D02*
X4985000D01*
X4975000Y5440000D02*
Y5460000D01*
X4965000Y3125000D02*
X4985000D01*
X4975000Y3115000D02*
Y3135000D01*
X4265000Y3000000D02*
X4285000D01*
X4275000Y2990000D02*
Y3010000D01*
X4832285Y3014414D02*
X4852285D01*
X4842285Y3004414D02*
Y3024414D01*
X5205868Y3715868D02*
X5225868D01*
X5215868Y3705868D02*
Y3725868D01*
X5765000Y3852900D02*
X5785000D01*
X5775000Y3842900D02*
Y3862900D01*
X5165001Y4524999D02*
X5185001D01*
X5175001Y4514999D02*
Y4534999D01*
X4927901Y4575000D02*
X4947901D01*
X4937901Y4565000D02*
Y4585000D01*
X4765000Y3625000D02*
X4785000D01*
X4775000Y3615000D02*
Y3635000D01*
X5065000Y3875000D02*
X5085000D01*
X5075000Y3865000D02*
Y3885000D01*
X5715000Y5525000D02*
X5735000D01*
X5725000Y5515000D02*
Y5535000D01*
X5090000Y5450000D02*
X5110000D01*
X5100000Y5440000D02*
Y5460000D01*
X4565000Y3500000D02*
X4585000D01*
X4575000Y3490000D02*
Y3510000D01*
X2372508Y1461983D02*
X2402508D01*
X2387508Y1446983D02*
Y1476983D01*
X2673017Y1337508D02*
X2703017D01*
X2688017Y1322508D02*
Y1352508D01*
X2372508Y1638017D02*
X2402508D01*
X2387508Y1623017D02*
Y1653017D01*
X2496983Y1337508D02*
X2526983D01*
X2511983Y1322508D02*
Y1352508D01*
X2496983Y1762492D02*
X2526983D01*
X2511983Y1747492D02*
Y1777492D01*
X2797492Y1638017D02*
X2827492D01*
X2812492Y1623017D02*
Y1653017D01*
X2797492Y1461983D02*
X2827492D01*
X2812492Y1446983D02*
Y1476983D01*
X2673017Y1762492D02*
X2703017D01*
X2688017Y1747492D02*
Y1777492D01*
X6372508Y1461983D02*
X6402508D01*
X6387508Y1446983D02*
Y1476983D01*
X6673017Y1337508D02*
X6703017D01*
X6688017Y1322508D02*
Y1352508D01*
X6496983Y1337508D02*
X6526983D01*
X6511983Y1322508D02*
Y1352508D01*
X6797492Y1638017D02*
X6827492D01*
X6812492Y1623017D02*
Y1653017D01*
X6496983Y1762492D02*
X6526983D01*
X6511983Y1747492D02*
Y1777492D01*
X6797492Y1461983D02*
X6827492D01*
X6812492Y1446983D02*
Y1476983D01*
X6673017Y1762492D02*
X6703017D01*
X6688017Y1747492D02*
Y1777492D01*
X6372508Y1638017D02*
X6402508D01*
X6387508Y1623017D02*
Y1653017D01*
X2797492Y5638017D02*
X2827492D01*
X2812492Y5623017D02*
Y5653017D01*
X2372508Y5461983D02*
X2402508D01*
X2387508Y5446983D02*
Y5476983D01*
X2372508Y5638017D02*
X2402508D01*
X2387508Y5623017D02*
Y5653017D01*
X2496983Y5337507D02*
X2526983D01*
X2511983Y5322508D02*
Y5352507D01*
X2496983Y5762492D02*
X2526983D01*
X2511983Y5747492D02*
Y5777492D01*
X2673017Y5762492D02*
X2703017D01*
X2688017Y5747492D02*
Y5777492D01*
X2673017Y5337507D02*
X2703017D01*
X2688017Y5322508D02*
Y5352507D01*
X2797492Y5461983D02*
X2827492D01*
X2812492Y5446983D02*
Y5476983D01*
X6496983Y5337507D02*
X6526983D01*
X6511983Y5322508D02*
Y5352507D01*
X6372508Y5461983D02*
X6402508D01*
X6387508Y5446983D02*
Y5476983D01*
X6372508Y5638017D02*
X6402508D01*
X6387508Y5623017D02*
Y5653017D01*
X6496983Y5762492D02*
X6526983D01*
X6511983Y5747492D02*
Y5777492D01*
X6673017Y5762492D02*
X6703017D01*
X6688017Y5747492D02*
Y5777492D01*
X6797492Y5638017D02*
X6827492D01*
X6812492Y5623017D02*
Y5653017D01*
X6797492Y5461983D02*
X6827492D01*
X6812492Y5446983D02*
Y5476983D01*
X6673017Y5337507D02*
X6703017D01*
X6688017Y5322508D02*
Y5352507D01*
%TF.MD5,5dcdf9138de768bffbef62729993a090*%
M02*
