%TF.GenerationSoftware,Altium Limited,Altium Designer,21.5.1 (32)*%
G04 Layer_Color=16711935*
%FSLAX45Y45*%
%MOMM*%
%TF.SameCoordinates,06A15EC1-A366-40CD-93CB-9F33A424241D*%
%TF.FilePolarity,Negative*%
%TF.FileFunction,Soldermask,Bot*%
%TF.Part,Single*%
G01*
G75*
%TA.AperFunction,ComponentPad*%
G04:AMPARAMS|DCode=48|XSize=1.7032mm|YSize=1.7032mm|CornerRadius=0.4766mm|HoleSize=0mm|Usage=FLASHONLY|Rotation=180.000|XOffset=0mm|YOffset=0mm|HoleType=Round|Shape=RoundedRectangle|*
%AMROUNDEDRECTD48*
21,1,1.70320,0.75000,0,0,180.0*
21,1,0.75000,1.70320,0,0,180.0*
1,1,0.95320,-0.37500,0.37500*
1,1,0.95320,0.37500,0.37500*
1,1,0.95320,0.37500,-0.37500*
1,1,0.95320,-0.37500,-0.37500*
%
%ADD48ROUNDEDRECTD48*%
G04:AMPARAMS|DCode=49|XSize=1.7032mm|YSize=1.7032mm|CornerRadius=0.4766mm|HoleSize=0mm|Usage=FLASHONLY|Rotation=270.000|XOffset=0mm|YOffset=0mm|HoleType=Round|Shape=RoundedRectangle|*
%AMROUNDEDRECTD49*
21,1,1.70320,0.75000,0,0,270.0*
21,1,0.75000,1.70320,0,0,270.0*
1,1,0.95320,-0.37500,-0.37500*
1,1,0.95320,-0.37500,0.37500*
1,1,0.95320,0.37500,0.37500*
1,1,0.95320,0.37500,-0.37500*
%
%ADD49ROUNDEDRECTD49*%
%TA.AperFunction,ViaPad*%
%ADD50C,6.20320*%
%ADD51C,0.65320*%
%ADD52C,0.70320*%
D48*
X3096000Y5804000D02*
D03*
X3350000D02*
D03*
Y5550000D02*
D03*
X3096000D02*
D03*
X3721000Y5804000D02*
D03*
X3975000D02*
D03*
Y5550000D02*
D03*
X3721000D02*
D03*
X4371000Y5804000D02*
D03*
X4625000D02*
D03*
Y5550000D02*
D03*
X4371000D02*
D03*
X6675000Y5078999D02*
D03*
X6929000D02*
D03*
Y4824999D02*
D03*
X6675000D02*
D03*
X6421000Y5078999D02*
D03*
Y4824999D02*
D03*
X5654000Y1554000D02*
D03*
X5908000D02*
D03*
Y1300000D02*
D03*
X5654000D02*
D03*
X5400000Y1554000D02*
D03*
Y1300000D02*
D03*
X4650000Y1550000D02*
D03*
X4904000D02*
D03*
Y1296000D02*
D03*
X4650000D02*
D03*
X4396000Y1550000D02*
D03*
Y1296000D02*
D03*
X3575000Y1554000D02*
D03*
X3829000D02*
D03*
Y1300000D02*
D03*
X3575000D02*
D03*
X3321000Y1554000D02*
D03*
Y1300000D02*
D03*
D49*
X5949999Y2125000D02*
D03*
Y2379000D02*
D03*
X6203999D02*
D03*
Y2125000D02*
D03*
X3249999D02*
D03*
Y2379000D02*
D03*
X3503999D02*
D03*
Y2125000D02*
D03*
X2346000D02*
D03*
Y2379000D02*
D03*
X2600000D02*
D03*
Y2125000D02*
D03*
X5049999D02*
D03*
Y2379000D02*
D03*
X5303999D02*
D03*
Y2125000D02*
D03*
X4149999D02*
D03*
Y2379000D02*
D03*
X4403999D02*
D03*
Y2125000D02*
D03*
X6929000Y4475000D02*
D03*
X6675000D02*
D03*
X6421000D02*
D03*
X6167000D02*
D03*
D50*
X2600000Y1550000D02*
D03*
X6600000D02*
D03*
X2600000Y5550000D02*
D03*
X6600000D02*
D03*
D51*
X2603500Y2768600D02*
D03*
X2590800Y2984500D02*
D03*
X5588000Y5892800D02*
D03*
X5041900Y5702300D02*
D03*
X4610100Y4864100D02*
D03*
X4978400Y4686300D02*
D03*
X4178300Y5029200D02*
D03*
X5877560Y3919220D02*
D03*
X5040000Y5940000D02*
D03*
X4220000Y4200000D02*
D03*
X3920000Y4560000D02*
D03*
X4360000Y4550000D02*
D03*
X4200000Y3180000D02*
D03*
Y3700000D02*
D03*
X5700000Y4170000D02*
D03*
X5375000Y4575000D02*
D03*
X5480000Y4560000D02*
D03*
X5332501Y4310000D02*
D03*
X4690000Y4430000D02*
D03*
X6600000Y3010000D02*
D03*
X4300000Y3150000D02*
D03*
X6990000Y2830000D02*
D03*
X6100000Y5520000D02*
D03*
X5300000Y4880000D02*
D03*
X4940000Y4080000D02*
D03*
X4920000Y3760000D02*
D03*
X6230000Y5850000D02*
D03*
X6070000Y3890000D02*
D03*
X5727100Y3272900D02*
D03*
Y3422900D02*
D03*
X6945500Y2345500D02*
D03*
X6475500D02*
D03*
X6700000Y2200000D02*
D03*
X6535000Y3945000D02*
D03*
X5630000Y2610000D02*
D03*
X3925002Y3265002D02*
D03*
X4670000Y4664998D02*
D03*
X5200000Y2630000D02*
D03*
X4975000Y5450000D02*
D03*
Y3125000D02*
D03*
X4275000Y3000000D02*
D03*
X4842285Y3014414D02*
D03*
X5215868Y3715868D02*
D03*
X5775000Y3852900D02*
D03*
X5175001Y4524999D02*
D03*
X4937901Y4575000D02*
D03*
X4775000Y3625000D02*
D03*
X5075000Y3875000D02*
D03*
X5725000Y5525000D02*
D03*
X5100000Y5450000D02*
D03*
X4575000Y3500000D02*
D03*
D52*
X4368800Y4876800D02*
D03*
X3771900Y4826000D02*
D03*
X3530000Y5280000D02*
D03*
%TF.MD5,4b16500c9507c616c3c81a10eade2505*%
M02*
