%TF.GenerationSoftware,Altium Limited,Altium Designer,21.5.1 (32)*%
G04 Layer_Color=8388736*
%FSLAX45Y45*%
%MOMM*%
%TF.SameCoordinates,06A15EC1-A366-40CD-93CB-9F33A424241D*%
%TF.FilePolarity,Negative*%
%TF.FileFunction,Soldermask,Top*%
%TF.Part,Single*%
G01*
G75*
%TA.AperFunction,SMDPad,CuDef*%
%ADD10R,1.30000X1.55000*%
%ADD15R,0.27247X0.47247*%
%ADD18R,1.30000X1.90000*%
%ADD24R,1.30000X1.65000*%
%ADD25R,1.90000X1.80000*%
%ADD26R,1.90000X1.00000*%
%ADD27R,1.55000X1.42500*%
%ADD28R,1.38000X0.45000*%
%TA.AperFunction,ComponentPad*%
G04:AMPARAMS|DCode=48|XSize=1.7032mm|YSize=1.7032mm|CornerRadius=0.4766mm|HoleSize=0mm|Usage=FLASHONLY|Rotation=180.000|XOffset=0mm|YOffset=0mm|HoleType=Round|Shape=RoundedRectangle|*
%AMROUNDEDRECTD48*
21,1,1.70320,0.75000,0,0,180.0*
21,1,0.75000,1.70320,0,0,180.0*
1,1,0.95320,-0.37500,0.37500*
1,1,0.95320,0.37500,0.37500*
1,1,0.95320,0.37500,-0.37500*
1,1,0.95320,-0.37500,-0.37500*
%
%ADD48ROUNDEDRECTD48*%
G04:AMPARAMS|DCode=49|XSize=1.7032mm|YSize=1.7032mm|CornerRadius=0.4766mm|HoleSize=0mm|Usage=FLASHONLY|Rotation=270.000|XOffset=0mm|YOffset=0mm|HoleType=Round|Shape=RoundedRectangle|*
%AMROUNDEDRECTD49*
21,1,1.70320,0.75000,0,0,270.0*
21,1,0.75000,1.70320,0,0,270.0*
1,1,0.95320,-0.37500,-0.37500*
1,1,0.95320,-0.37500,0.37500*
1,1,0.95320,0.37500,0.37500*
1,1,0.95320,0.37500,-0.37500*
%
%ADD49ROUNDEDRECTD49*%
%TA.AperFunction,ViaPad*%
%ADD50C,6.20320*%
%ADD51C,0.65320*%
%ADD52C,0.70320*%
%TA.AperFunction,SMDPad,CuDef*%
G04:AMPARAMS|DCode=59|XSize=0.8032mm|YSize=0.9032mm|CornerRadius=0.1766mm|HoleSize=0mm|Usage=FLASHONLY|Rotation=0.000|XOffset=0mm|YOffset=0mm|HoleType=Round|Shape=RoundedRectangle|*
%AMROUNDEDRECTD59*
21,1,0.80320,0.55000,0,0,0.0*
21,1,0.45000,0.90320,0,0,0.0*
1,1,0.35320,0.22500,-0.27500*
1,1,0.35320,-0.22500,-0.27500*
1,1,0.35320,-0.22500,0.27500*
1,1,0.35320,0.22500,0.27500*
%
%ADD59ROUNDEDRECTD59*%
%ADD60R,1.45240X1.65240*%
%ADD61R,1.85240X0.45240*%
%ADD62R,1.42240X1.42240*%
G04:AMPARAMS|DCode=63|XSize=3.4532mm|YSize=2.2532mm|CornerRadius=0.15285mm|HoleSize=0mm|Usage=FLASHONLY|Rotation=0.000|XOffset=0mm|YOffset=0mm|HoleType=Round|Shape=RoundedRectangle|*
%AMROUNDEDRECTD63*
21,1,3.45320,1.94750,0,0,0.0*
21,1,3.14750,2.25320,0,0,0.0*
1,1,0.30570,1.57375,-0.97375*
1,1,0.30570,-1.57375,-0.97375*
1,1,0.30570,-1.57375,0.97375*
1,1,0.30570,1.57375,0.97375*
%
%ADD63ROUNDEDRECTD63*%
G04:AMPARAMS|DCode=64|XSize=1.2032mm|YSize=2.2532mm|CornerRadius=0.1516mm|HoleSize=0mm|Usage=FLASHONLY|Rotation=0.000|XOffset=0mm|YOffset=0mm|HoleType=Round|Shape=RoundedRectangle|*
%AMROUNDEDRECTD64*
21,1,1.20320,1.95000,0,0,0.0*
21,1,0.90000,2.25320,0,0,0.0*
1,1,0.30320,0.45000,-0.97500*
1,1,0.30320,-0.45000,-0.97500*
1,1,0.30320,-0.45000,0.97500*
1,1,0.30320,0.45000,0.97500*
%
%ADD64ROUNDEDRECTD64*%
%ADD65R,0.45240X1.85240*%
%ADD66O,1.45320X0.75320*%
%ADD67R,1.40320X6.29920*%
%ADD68R,1.65240X1.45240*%
%ADD69R,1.42240X1.42240*%
G04:AMPARAMS|DCode=70|XSize=1.0032mm|YSize=1.2032mm|CornerRadius=0.2016mm|HoleSize=0mm|Usage=FLASHONLY|Rotation=90.000|XOffset=0mm|YOffset=0mm|HoleType=Round|Shape=RoundedRectangle|*
%AMROUNDEDRECTD70*
21,1,1.00320,0.80000,0,0,90.0*
21,1,0.60000,1.20320,0,0,90.0*
1,1,0.40320,0.40000,0.30000*
1,1,0.40320,0.40000,-0.30000*
1,1,0.40320,-0.40000,-0.30000*
1,1,0.40320,-0.40000,0.30000*
%
%ADD70ROUNDEDRECTD70*%
D10*
X2993600Y4004300D02*
D03*
Y3209300D02*
D03*
X2543600Y4004300D02*
D03*
Y3209300D02*
D03*
D15*
X6365001Y3665000D02*
D03*
X6465001D02*
D03*
D18*
X3074080Y4290080D02*
D03*
X2524080D02*
D03*
Y4610080D02*
D03*
X3074080D02*
D03*
D24*
X6950001Y3477500D02*
D03*
Y4152500D02*
D03*
D25*
Y3700000D02*
D03*
D26*
Y3970000D02*
D03*
D27*
X6692501Y3566250D02*
D03*
Y4063750D02*
D03*
D28*
X6684001Y3685000D02*
D03*
Y3750000D02*
D03*
Y3815000D02*
D03*
Y3880000D02*
D03*
Y3945000D02*
D03*
D48*
X3096000Y5804000D02*
D03*
X3350000D02*
D03*
Y5550000D02*
D03*
X3096000D02*
D03*
X3721000Y5804000D02*
D03*
X3975000D02*
D03*
Y5550000D02*
D03*
X3721000D02*
D03*
X4371000Y5804000D02*
D03*
X4625000D02*
D03*
Y5550000D02*
D03*
X4371000D02*
D03*
X6675000Y5078999D02*
D03*
X6929000D02*
D03*
Y4824999D02*
D03*
X6675000D02*
D03*
X6421000Y5078999D02*
D03*
Y4824999D02*
D03*
X5654000Y1554000D02*
D03*
X5908000D02*
D03*
Y1300000D02*
D03*
X5654000D02*
D03*
X5400000Y1554000D02*
D03*
Y1300000D02*
D03*
X4650000Y1550000D02*
D03*
X4904000D02*
D03*
Y1296000D02*
D03*
X4650000D02*
D03*
X4396000Y1550000D02*
D03*
Y1296000D02*
D03*
X3575000Y1554000D02*
D03*
X3829000D02*
D03*
Y1300000D02*
D03*
X3575000D02*
D03*
X3321000Y1554000D02*
D03*
Y1300000D02*
D03*
D49*
X5949999Y2125000D02*
D03*
Y2379000D02*
D03*
X6203999D02*
D03*
Y2125000D02*
D03*
X3249999D02*
D03*
Y2379000D02*
D03*
X3503999D02*
D03*
Y2125000D02*
D03*
X2346000D02*
D03*
Y2379000D02*
D03*
X2600000D02*
D03*
Y2125000D02*
D03*
X5049999D02*
D03*
Y2379000D02*
D03*
X5303999D02*
D03*
Y2125000D02*
D03*
X4149999D02*
D03*
Y2379000D02*
D03*
X4403999D02*
D03*
Y2125000D02*
D03*
X6929000Y4475000D02*
D03*
X6675000D02*
D03*
X6421000D02*
D03*
X6167000D02*
D03*
D50*
X2600000Y1550000D02*
D03*
X6600000D02*
D03*
X2600000Y5550000D02*
D03*
X6600000D02*
D03*
D51*
X2603500Y2768600D02*
D03*
X2590800Y2984500D02*
D03*
X5588000Y5892800D02*
D03*
X5041900Y5702300D02*
D03*
X4610100Y4864100D02*
D03*
X4978400Y4686300D02*
D03*
X4178300Y5029200D02*
D03*
X5877560Y3919220D02*
D03*
X5040000Y5940000D02*
D03*
X4220000Y4200000D02*
D03*
X3920000Y4560000D02*
D03*
X4360000Y4550000D02*
D03*
X4200000Y3180000D02*
D03*
Y3700000D02*
D03*
X5700000Y4170000D02*
D03*
X5375000Y4575000D02*
D03*
X5480000Y4560000D02*
D03*
X5332501Y4310000D02*
D03*
X4690000Y4430000D02*
D03*
X6600000Y3010000D02*
D03*
X4300000Y3150000D02*
D03*
X6990000Y2830000D02*
D03*
X6100000Y5520000D02*
D03*
X5300000Y4880000D02*
D03*
X4940000Y4080000D02*
D03*
X4920000Y3760000D02*
D03*
X6230000Y5850000D02*
D03*
X6070000Y3890000D02*
D03*
X5727100Y3272900D02*
D03*
Y3422900D02*
D03*
X6945500Y2345500D02*
D03*
X6475500D02*
D03*
X6700000Y2200000D02*
D03*
X6535000Y3945000D02*
D03*
X5630000Y2610000D02*
D03*
X3925002Y3265002D02*
D03*
X4670000Y4664998D02*
D03*
X5200000Y2630000D02*
D03*
X4975000Y5450000D02*
D03*
Y3125000D02*
D03*
X4275000Y3000000D02*
D03*
X4842285Y3014414D02*
D03*
X5215868Y3715868D02*
D03*
X5775000Y3852900D02*
D03*
X5175001Y4524999D02*
D03*
X4937901Y4575000D02*
D03*
X4775000Y3625000D02*
D03*
X5075000Y3875000D02*
D03*
X5725000Y5525000D02*
D03*
X5100000Y5450000D02*
D03*
X4575000Y3500000D02*
D03*
D52*
X4368800Y4876800D02*
D03*
X3771900Y4826000D02*
D03*
X3530000Y5280000D02*
D03*
D59*
X5300000Y3000000D02*
D03*
X5200000D02*
D03*
Y2770000D02*
D03*
X5300000D02*
D03*
D60*
X4368300Y5232400D02*
D03*
X4178300D02*
D03*
X3778508Y5232408D02*
D03*
X3968508D02*
D03*
X3022600Y2768600D02*
D03*
X6054992Y5089992D02*
D03*
X5864992D02*
D03*
X5475000Y2775000D02*
D03*
X5665000D02*
D03*
X5475000Y3000000D02*
D03*
X5665000D02*
D03*
X6064992Y4849992D02*
D03*
X5874992D02*
D03*
X2832600Y2768600D02*
D03*
D61*
X4576201Y3840000D02*
D03*
X5423801Y4140000D02*
D03*
Y4090000D02*
D03*
Y4040000D02*
D03*
Y3990000D02*
D03*
Y3940000D02*
D03*
Y3890000D02*
D03*
Y3840000D02*
D03*
Y3790000D02*
D03*
Y3740000D02*
D03*
Y3690000D02*
D03*
Y3640000D02*
D03*
Y3590000D02*
D03*
X4576201D02*
D03*
Y3640000D02*
D03*
Y3690000D02*
D03*
Y3740000D02*
D03*
Y3790000D02*
D03*
Y3890000D02*
D03*
Y3940000D02*
D03*
Y3990000D02*
D03*
Y4040000D02*
D03*
Y4090000D02*
D03*
Y4140000D02*
D03*
D62*
X3021008Y2984508D02*
D03*
X2821008D02*
D03*
X5690000Y4310000D02*
D03*
X5490000D02*
D03*
X6929992Y3214992D02*
D03*
X6729993D02*
D03*
X6514992D02*
D03*
X6314992D02*
D03*
D63*
X6700000Y2357500D02*
D03*
D64*
X6470000Y2992500D02*
D03*
X6700000D02*
D03*
X6930000D02*
D03*
D65*
X4725001Y4288800D02*
D03*
X4775001D02*
D03*
X4825001D02*
D03*
X4875001D02*
D03*
X4925001D02*
D03*
X4975001D02*
D03*
X5025001D02*
D03*
X5075001D02*
D03*
X5125001D02*
D03*
X5175001D02*
D03*
X5225001D02*
D03*
X5275001D02*
D03*
Y3441200D02*
D03*
X5225001D02*
D03*
X5175001D02*
D03*
X5125001D02*
D03*
X5075001D02*
D03*
X5025001D02*
D03*
X4975001D02*
D03*
X4925001D02*
D03*
X4875001D02*
D03*
X4825001D02*
D03*
X4775001D02*
D03*
X4725001D02*
D03*
D66*
X5367500Y5940500D02*
D03*
Y5813500D02*
D03*
Y5686500D02*
D03*
Y5559500D02*
D03*
X5892500Y5940500D02*
D03*
Y5813500D02*
D03*
Y5686500D02*
D03*
Y5559500D02*
D03*
D67*
X3550002Y4290000D02*
D03*
Y3490000D02*
D03*
D68*
X3924994Y3820008D02*
D03*
Y4010008D02*
D03*
X4899984Y5600016D02*
D03*
Y5790016D02*
D03*
D69*
X3925002Y4415000D02*
D03*
Y4215000D02*
D03*
Y3415000D02*
D03*
Y3615000D02*
D03*
X4555001Y4550000D02*
D03*
Y4350000D02*
D03*
X4200000Y3559999D02*
D03*
Y3360000D02*
D03*
X5424992Y3250008D02*
D03*
Y3450008D02*
D03*
X4355001Y4410000D02*
D03*
Y4210000D02*
D03*
X5180000Y5700001D02*
D03*
Y5900000D02*
D03*
X6100000Y5650000D02*
D03*
Y5850000D02*
D03*
D70*
X5600000Y3275000D02*
D03*
Y3425000D02*
D03*
X6340001Y3540000D02*
D03*
X6490000D02*
D03*
X6340001Y3390000D02*
D03*
X6490000D02*
D03*
%TF.MD5,44c7aeb943b6d06ee9f5d9161d0b46eb*%
M02*
