%TF.GenerationSoftware,Altium Limited,Altium Designer,21.5.1 (32)*%
G04 Layer_Physical_Order=4*
G04 Layer_Color=16711680*
%FSLAX45Y45*%
%MOMM*%
%TF.SameCoordinates,06A15EC1-A366-40CD-93CB-9F33A424241D*%
%TF.FilePolarity,Positive*%
%TF.FileFunction,Copper,L4,Bot,Signal*%
%TF.Part,Single*%
G01*
G75*
%TA.AperFunction,Conductor*%
%ADD30C,0.45000*%
%TA.AperFunction,ComponentPad*%
G04:AMPARAMS|DCode=42|XSize=1.5mm|YSize=1.5mm|CornerRadius=0.375mm|HoleSize=0mm|Usage=FLASHONLY|Rotation=180.000|XOffset=0mm|YOffset=0mm|HoleType=Round|Shape=RoundedRectangle|*
%AMROUNDEDRECTD42*
21,1,1.50000,0.75000,0,0,180.0*
21,1,0.75000,1.50000,0,0,180.0*
1,1,0.75000,-0.37500,0.37500*
1,1,0.75000,0.37500,0.37500*
1,1,0.75000,0.37500,-0.37500*
1,1,0.75000,-0.37500,-0.37500*
%
%ADD42ROUNDEDRECTD42*%
G04:AMPARAMS|DCode=43|XSize=1.5mm|YSize=1.5mm|CornerRadius=0.375mm|HoleSize=0mm|Usage=FLASHONLY|Rotation=270.000|XOffset=0mm|YOffset=0mm|HoleType=Round|Shape=RoundedRectangle|*
%AMROUNDEDRECTD43*
21,1,1.50000,0.75000,0,0,270.0*
21,1,0.75000,1.50000,0,0,270.0*
1,1,0.75000,-0.37500,-0.37500*
1,1,0.75000,-0.37500,0.37500*
1,1,0.75000,0.37500,0.37500*
1,1,0.75000,0.37500,-0.37500*
%
%ADD43ROUNDEDRECTD43*%
%TA.AperFunction,ViaPad*%
%ADD44C,6.00000*%
%ADD45C,0.45000*%
%ADD46C,0.50000*%
%ADD47C,0.60000*%
D30*
X5588000Y5489360D02*
Y5892800D01*
X5548640Y5450000D02*
X5588000Y5489360D01*
X4610100Y4864100D02*
X4622800Y4876800D01*
X4952040D01*
X4978400Y4686300D02*
Y4850440D01*
X4952040Y4876800D02*
X4978400Y4850440D01*
X4204660Y4750101D02*
X4762801D01*
X4178300Y4776461D02*
X4204660Y4750101D01*
X4762801D02*
X4937901Y4575000D01*
X4178300Y4776461D02*
Y5029200D01*
X5877560Y3919220D02*
Y4422440D01*
X5580000Y4720000D02*
X5877560Y4422440D01*
X5570000Y4170000D02*
Y4470000D01*
X5480000Y4560000D02*
X5570000Y4470000D01*
X5275000Y3875000D02*
X5570000Y4170000D01*
X5160000Y4719437D02*
X5239437Y4640000D01*
X5560000D02*
X5800000Y4400000D01*
X5239437Y4640000D02*
X5560000D01*
X5375000Y4495000D02*
X5460000Y4410000D01*
X5375000Y4495000D02*
Y4575000D01*
X5460000Y4210000D02*
Y4410000D01*
X5330000Y4080000D02*
X5460000Y4210000D01*
X4940000Y4080000D02*
X5330000D01*
X3530000Y5280000D02*
X4930000D01*
X5160000Y5050000D01*
X4300000Y3150000D02*
X4520000D01*
X4575000Y3205000D02*
Y3500000D01*
X4520000Y3150000D02*
X4575000Y3205000D01*
X2610000Y5160000D02*
X4880000D01*
X5080000Y4620000D02*
Y4960000D01*
X4880000Y5160000D02*
X5080000Y4960000D01*
Y4620000D02*
X5175001Y4524999D01*
X6029600Y5649600D02*
X6230000Y5850000D01*
X6029600Y3930400D02*
Y5649600D01*
Y3930400D02*
X6070000Y3890000D01*
X5300000Y4880000D02*
X5545000D01*
X4920000Y3760000D02*
X5150869Y3529132D01*
Y2892021D02*
Y3529132D01*
X3373431Y5387500D02*
X4922500D01*
X5225000Y4746360D02*
Y5085000D01*
X4922500Y5387500D02*
X5225000Y5085000D01*
X5160000Y4719437D02*
Y5050000D01*
X3350000Y5410932D02*
X3373431Y5387500D01*
X3350000Y5410932D02*
Y5550000D01*
X5251360Y4720000D02*
X5580000D01*
X5225000Y4746360D02*
X5251360Y4720000D01*
X5800000Y3877900D02*
Y4400000D01*
X5545000Y4880000D02*
X5954000Y4471000D01*
X5775000Y3852900D02*
X5800000Y3877900D01*
X2346000Y4896000D02*
X2610000Y5160000D01*
X4750000Y2375000D02*
X5215868Y2840868D01*
X5085869Y2935869D02*
Y3314132D01*
X4600000Y2450000D02*
X5085869Y2935869D01*
X4675000Y2416153D02*
X5150869Y2892021D01*
X5215868Y2840868D02*
Y3715868D01*
X4750000Y1650000D02*
Y2375000D01*
X4775000Y3625000D02*
X5085869Y3314132D01*
X4975000Y5450000D02*
X5050000Y5375000D01*
X5575000D01*
X4975000Y3000000D02*
Y3125000D01*
X4750000Y2775000D02*
X4975000Y3000000D01*
X4275000Y3000000D02*
X4289414Y3014414D01*
X4842285D01*
X4251360Y1776360D02*
X4400000Y1925000D01*
X4251360Y1322360D02*
Y1776360D01*
Y1322360D02*
X4277721Y1296000D01*
X4396000D01*
X4400000Y1925000D02*
X4573640D01*
X4600000Y1951360D01*
Y2450000D01*
X4396000Y1550000D02*
Y1571000D01*
X4675000Y1850000D01*
Y2416153D01*
X4650000Y1550000D02*
X4750000Y1650000D01*
X2996000Y2775000D02*
X4750000D01*
X2600000Y2379000D02*
X2996000Y2775000D01*
X5100000Y5450000D02*
X5548640D01*
X2346000Y2379000D02*
Y4896000D01*
X5075000Y3875000D02*
X5275000D01*
X5954000Y2946000D02*
Y4471000D01*
Y2946000D02*
X6203999Y2696001D01*
Y2379000D02*
Y2696001D01*
X5575000Y5375000D02*
X5725000Y5525000D01*
D42*
X3096000Y5804000D02*
D03*
X3350000D02*
D03*
Y5550000D02*
D03*
X3096000D02*
D03*
X3721000Y5804000D02*
D03*
X3975000D02*
D03*
Y5550000D02*
D03*
X3721000D02*
D03*
X4371000Y5804000D02*
D03*
X4625000D02*
D03*
Y5550000D02*
D03*
X4371000D02*
D03*
X6675000Y5078999D02*
D03*
X6929000D02*
D03*
Y4824999D02*
D03*
X6675000D02*
D03*
X6421000Y5078999D02*
D03*
Y4824999D02*
D03*
X5654000Y1554000D02*
D03*
X5908000D02*
D03*
Y1300000D02*
D03*
X5654000D02*
D03*
X5400000Y1554000D02*
D03*
Y1300000D02*
D03*
X4650000Y1550000D02*
D03*
X4904000D02*
D03*
Y1296000D02*
D03*
X4650000D02*
D03*
X4396000Y1550000D02*
D03*
Y1296000D02*
D03*
X3575000Y1554000D02*
D03*
X3829000D02*
D03*
Y1300000D02*
D03*
X3575000D02*
D03*
X3321000Y1554000D02*
D03*
Y1300000D02*
D03*
D43*
X5949999Y2125000D02*
D03*
Y2379000D02*
D03*
X6203999D02*
D03*
Y2125000D02*
D03*
X3249999D02*
D03*
Y2379000D02*
D03*
X3503999D02*
D03*
Y2125000D02*
D03*
X2346000D02*
D03*
Y2379000D02*
D03*
X2600000D02*
D03*
Y2125000D02*
D03*
X5049999D02*
D03*
Y2379000D02*
D03*
X5303999D02*
D03*
Y2125000D02*
D03*
X4149999D02*
D03*
Y2379000D02*
D03*
X4403999D02*
D03*
Y2125000D02*
D03*
X6929000Y4475000D02*
D03*
X6675000D02*
D03*
X6421000D02*
D03*
X6167000D02*
D03*
D44*
X2600000Y1550000D02*
D03*
X6600000D02*
D03*
X2600000Y5550000D02*
D03*
X6600000D02*
D03*
D45*
X2603500Y2768600D02*
D03*
X2590800Y2984500D02*
D03*
X5588000Y5892800D02*
D03*
X5041900Y5702300D02*
D03*
X4610100Y4864100D02*
D03*
X4978400Y4686300D02*
D03*
X4178300Y5029200D02*
D03*
X5877560Y3919220D02*
D03*
X5040000Y5940000D02*
D03*
X4220000Y4200000D02*
D03*
X3920000Y4560000D02*
D03*
X4360000Y4550000D02*
D03*
X4200000Y3180000D02*
D03*
Y3700000D02*
D03*
X5700000Y4170000D02*
D03*
X5375000Y4575000D02*
D03*
X5480000Y4560000D02*
D03*
X5332501Y4310000D02*
D03*
X4690000Y4430000D02*
D03*
X6600000Y3010000D02*
D03*
X4300000Y3150000D02*
D03*
X6990000Y2830000D02*
D03*
X6100000Y5520000D02*
D03*
X5300000Y4880000D02*
D03*
X4940000Y4080000D02*
D03*
X4920000Y3760000D02*
D03*
X6230000Y5850000D02*
D03*
X6070000Y3890000D02*
D03*
X5727100Y3272900D02*
D03*
Y3422900D02*
D03*
X6945500Y2345500D02*
D03*
X6475500D02*
D03*
X6700000Y2200000D02*
D03*
X6535000Y3945000D02*
D03*
X5630000Y2610000D02*
D03*
X3925002Y3265002D02*
D03*
X4670000Y4664998D02*
D03*
X5200000Y2630000D02*
D03*
X4975000Y5450000D02*
D03*
Y3125000D02*
D03*
X4275000Y3000000D02*
D03*
X4842285Y3014414D02*
D03*
X5215868Y3715868D02*
D03*
X5775000Y3852900D02*
D03*
X5175001Y4524999D02*
D03*
X4937901Y4575000D02*
D03*
X4775000Y3625000D02*
D03*
X5075000Y3875000D02*
D03*
X5725000Y5525000D02*
D03*
X5100000Y5450000D02*
D03*
X4575000Y3500000D02*
D03*
D46*
X4368800Y4876800D02*
D03*
X3771900Y4826000D02*
D03*
X3530000Y5280000D02*
D03*
D47*
X2387508Y1461983D02*
D03*
X2688017Y1337508D02*
D03*
X2387508Y1638017D02*
D03*
X2511983Y1337508D02*
D03*
Y1762492D02*
D03*
X2812492Y1638017D02*
D03*
Y1461983D02*
D03*
X2688017Y1762492D02*
D03*
X6387508Y1461983D02*
D03*
X6688017Y1337508D02*
D03*
X6511983D02*
D03*
X6812492Y1638017D02*
D03*
X6511983Y1762492D02*
D03*
X6812492Y1461983D02*
D03*
X6688017Y1762492D02*
D03*
X6387508Y1638017D02*
D03*
X2812492Y5638017D02*
D03*
X2387508Y5461983D02*
D03*
Y5638017D02*
D03*
X2511983Y5337507D02*
D03*
Y5762492D02*
D03*
X2688017D02*
D03*
Y5337507D02*
D03*
X2812492Y5461983D02*
D03*
X6511983Y5337507D02*
D03*
X6387508Y5461983D02*
D03*
Y5638017D02*
D03*
X6511983Y5762492D02*
D03*
X6688017D02*
D03*
X6812492Y5638017D02*
D03*
Y5461983D02*
D03*
X6688017Y5337507D02*
D03*
%TF.MD5,883656f2f43e30008503cb333664837a*%
M02*
