%TF.GenerationSoftware,Altium Limited,Altium Designer,21.5.1 (32)*%
G04 Layer_Color=255*
%FSLAX45Y45*%
%MOMM*%
%TF.SameCoordinates,06A15EC1-A366-40CD-93CB-9F33A424241D*%
%TF.FilePolarity,Positive*%
%TF.FileFunction,Pads,Bot*%
%TF.Part,Single*%
G01*
G75*
%TA.AperFunction,ComponentPad*%
G04:AMPARAMS|DCode=42|XSize=1.5mm|YSize=1.5mm|CornerRadius=0.375mm|HoleSize=0mm|Usage=FLASHONLY|Rotation=180.000|XOffset=0mm|YOffset=0mm|HoleType=Round|Shape=RoundedRectangle|*
%AMROUNDEDRECTD42*
21,1,1.50000,0.75000,0,0,180.0*
21,1,0.75000,1.50000,0,0,180.0*
1,1,0.75000,-0.37500,0.37500*
1,1,0.75000,0.37500,0.37500*
1,1,0.75000,0.37500,-0.37500*
1,1,0.75000,-0.37500,-0.37500*
%
%ADD42ROUNDEDRECTD42*%
G04:AMPARAMS|DCode=43|XSize=1.5mm|YSize=1.5mm|CornerRadius=0.375mm|HoleSize=0mm|Usage=FLASHONLY|Rotation=270.000|XOffset=0mm|YOffset=0mm|HoleType=Round|Shape=RoundedRectangle|*
%AMROUNDEDRECTD43*
21,1,1.50000,0.75000,0,0,270.0*
21,1,0.75000,1.50000,0,0,270.0*
1,1,0.75000,-0.37500,-0.37500*
1,1,0.75000,-0.37500,0.37500*
1,1,0.75000,0.37500,0.37500*
1,1,0.75000,0.37500,-0.37500*
%
%ADD43ROUNDEDRECTD43*%
%TA.AperFunction,ViaPad*%
%ADD44C,6.00000*%
D42*
X3096000Y5804000D02*
D03*
X3350000D02*
D03*
Y5550000D02*
D03*
X3096000D02*
D03*
X3721000Y5804000D02*
D03*
X3975000D02*
D03*
Y5550000D02*
D03*
X3721000D02*
D03*
X4371000Y5804000D02*
D03*
X4625000D02*
D03*
Y5550000D02*
D03*
X4371000D02*
D03*
X6675000Y5078999D02*
D03*
X6929000D02*
D03*
Y4824999D02*
D03*
X6675000D02*
D03*
X6421000Y5078999D02*
D03*
Y4824999D02*
D03*
X5654000Y1554000D02*
D03*
X5908000D02*
D03*
Y1300000D02*
D03*
X5654000D02*
D03*
X5400000Y1554000D02*
D03*
Y1300000D02*
D03*
X4650000Y1550000D02*
D03*
X4904000D02*
D03*
Y1296000D02*
D03*
X4650000D02*
D03*
X4396000Y1550000D02*
D03*
Y1296000D02*
D03*
X3575000Y1554000D02*
D03*
X3829000D02*
D03*
Y1300000D02*
D03*
X3575000D02*
D03*
X3321000Y1554000D02*
D03*
Y1300000D02*
D03*
D43*
X5949999Y2125000D02*
D03*
Y2379000D02*
D03*
X6203999D02*
D03*
Y2125000D02*
D03*
X3249999D02*
D03*
Y2379000D02*
D03*
X3503999D02*
D03*
Y2125000D02*
D03*
X2346000D02*
D03*
Y2379000D02*
D03*
X2600000D02*
D03*
Y2125000D02*
D03*
X5049999D02*
D03*
Y2379000D02*
D03*
X5303999D02*
D03*
Y2125000D02*
D03*
X4149999D02*
D03*
Y2379000D02*
D03*
X4403999D02*
D03*
Y2125000D02*
D03*
X6929000Y4475000D02*
D03*
X6675000D02*
D03*
X6421000D02*
D03*
X6167000D02*
D03*
D44*
X2600000Y1550000D02*
D03*
X6600000D02*
D03*
X2600000Y5550000D02*
D03*
X6600000D02*
D03*
%TF.MD5,1adb6e03173fa216927b5822cf4d15bb*%
M02*
