%TF.GenerationSoftware,Altium Limited,Altium Designer,21.5.1 (32)*%
G04 Layer_Physical_Order=3*
G04 Layer_Color=16440176*
%FSLAX45Y45*%
%MOMM*%
%TF.SameCoordinates,06A15EC1-A366-40CD-93CB-9F33A424241D*%
%TF.FilePolarity,Positive*%
%TF.FileFunction,Copper,L3,Inr,Signal*%
%TF.Part,Single*%
G01*
G75*
%TA.AperFunction,ComponentPad*%
G04:AMPARAMS|DCode=42|XSize=1.5mm|YSize=1.5mm|CornerRadius=0.375mm|HoleSize=0mm|Usage=FLASHONLY|Rotation=180.000|XOffset=0mm|YOffset=0mm|HoleType=Round|Shape=RoundedRectangle|*
%AMROUNDEDRECTD42*
21,1,1.50000,0.75000,0,0,180.0*
21,1,0.75000,1.50000,0,0,180.0*
1,1,0.75000,-0.37500,0.37500*
1,1,0.75000,0.37500,0.37500*
1,1,0.75000,0.37500,-0.37500*
1,1,0.75000,-0.37500,-0.37500*
%
%ADD42ROUNDEDRECTD42*%
G04:AMPARAMS|DCode=43|XSize=1.5mm|YSize=1.5mm|CornerRadius=0.375mm|HoleSize=0mm|Usage=FLASHONLY|Rotation=270.000|XOffset=0mm|YOffset=0mm|HoleType=Round|Shape=RoundedRectangle|*
%AMROUNDEDRECTD43*
21,1,1.50000,0.75000,0,0,270.0*
21,1,0.75000,1.50000,0,0,270.0*
1,1,0.75000,-0.37500,-0.37500*
1,1,0.75000,-0.37500,0.37500*
1,1,0.75000,0.37500,0.37500*
1,1,0.75000,0.37500,-0.37500*
%
%ADD43ROUNDEDRECTD43*%
%TA.AperFunction,ViaPad*%
%ADD44C,6.00000*%
%ADD45C,0.45000*%
%ADD46C,0.50000*%
%ADD47C,0.60000*%
G36*
X7100000Y5550000D02*
Y1550000D01*
X6600000Y1050000D01*
X2600000D01*
X2100000Y1550000D01*
Y5575000D01*
X2575000Y6050000D01*
X6600000D01*
X7100000Y5550000D01*
D02*
G37*
%LPC*%
G36*
X5596454Y5935300D02*
X5579546D01*
X5563926Y5928830D01*
X5551970Y5916874D01*
X5545500Y5901254D01*
Y5884346D01*
X5551970Y5868726D01*
X5563926Y5856770D01*
X5579546Y5850300D01*
X5596454D01*
X5612074Y5856770D01*
X5624030Y5868726D01*
X5630500Y5884346D01*
Y5901254D01*
X5624030Y5916874D01*
X5612074Y5928830D01*
X5596454Y5935300D01*
D02*
G37*
G36*
X6238454Y5892500D02*
X6221546D01*
X6205926Y5886030D01*
X6193970Y5874074D01*
X6187500Y5858454D01*
Y5841546D01*
X6193970Y5825926D01*
X6205926Y5813970D01*
X6221546Y5807500D01*
X6238454D01*
X6254074Y5813970D01*
X6266030Y5825926D01*
X6272500Y5841546D01*
Y5858454D01*
X6266030Y5874074D01*
X6254074Y5886030D01*
X6238454Y5892500D01*
D02*
G37*
G36*
X4662500Y5900126D02*
X4587500D01*
X4565065Y5895664D01*
X4546045Y5882955D01*
X4533336Y5863935D01*
X4528874Y5841500D01*
Y5766500D01*
X4533336Y5744065D01*
X4546045Y5725045D01*
X4565065Y5712337D01*
X4587500Y5707874D01*
X4662500D01*
X4684935Y5712337D01*
X4703955Y5725045D01*
X4716663Y5744065D01*
X4721126Y5766500D01*
Y5841500D01*
X4716663Y5863935D01*
X4703955Y5882955D01*
X4684935Y5895664D01*
X4662500Y5900126D01*
D02*
G37*
G36*
X4408500D02*
X4333500D01*
X4311065Y5895664D01*
X4292045Y5882955D01*
X4279336Y5863935D01*
X4274874Y5841500D01*
Y5766500D01*
X4279336Y5744065D01*
X4292045Y5725045D01*
X4311065Y5712337D01*
X4333500Y5707874D01*
X4408500D01*
X4430935Y5712337D01*
X4449955Y5725045D01*
X4462663Y5744065D01*
X4467126Y5766500D01*
Y5841500D01*
X4462663Y5863935D01*
X4449955Y5882955D01*
X4430935Y5895664D01*
X4408500Y5900126D01*
D02*
G37*
G36*
X4012500D02*
X3937500D01*
X3915065Y5895664D01*
X3896045Y5882955D01*
X3883336Y5863935D01*
X3878874Y5841500D01*
Y5766500D01*
X3883336Y5744065D01*
X3896045Y5725045D01*
X3915065Y5712337D01*
X3937500Y5707874D01*
X4012500D01*
X4034935Y5712337D01*
X4053955Y5725045D01*
X4066663Y5744065D01*
X4071126Y5766500D01*
Y5841500D01*
X4066663Y5863935D01*
X4053955Y5882955D01*
X4034935Y5895664D01*
X4012500Y5900126D01*
D02*
G37*
G36*
X3758500D02*
X3683500D01*
X3661065Y5895664D01*
X3642045Y5882955D01*
X3629336Y5863935D01*
X3624874Y5841500D01*
Y5766500D01*
X3629336Y5744065D01*
X3642045Y5725045D01*
X3661065Y5712337D01*
X3683500Y5707874D01*
X3758500D01*
X3780935Y5712337D01*
X3799955Y5725045D01*
X3812663Y5744065D01*
X3817126Y5766500D01*
Y5841500D01*
X3812663Y5863935D01*
X3799955Y5882955D01*
X3780935Y5895664D01*
X3758500Y5900126D01*
D02*
G37*
G36*
X3387500D02*
X3312500D01*
X3290065Y5895664D01*
X3271045Y5882955D01*
X3258336Y5863935D01*
X3253874Y5841500D01*
Y5766500D01*
X3258336Y5744065D01*
X3271045Y5725045D01*
X3290065Y5712337D01*
X3312500Y5707874D01*
X3387500D01*
X3409935Y5712337D01*
X3428955Y5725045D01*
X3441663Y5744065D01*
X3446126Y5766500D01*
Y5841500D01*
X3441663Y5863935D01*
X3428955Y5882955D01*
X3409935Y5895664D01*
X3387500Y5900126D01*
D02*
G37*
G36*
X3133500D02*
X3058500D01*
X3036065Y5895664D01*
X3017045Y5882955D01*
X3004336Y5863935D01*
X2999874Y5841500D01*
Y5766500D01*
X3004336Y5744065D01*
X3017045Y5725045D01*
X3036065Y5712337D01*
X3058500Y5707874D01*
X3133500D01*
X3155935Y5712337D01*
X3174955Y5725045D01*
X3187663Y5744065D01*
X3192126Y5766500D01*
Y5841500D01*
X3187663Y5863935D01*
X3174955Y5882955D01*
X3155935Y5895664D01*
X3133500Y5900126D01*
D02*
G37*
G36*
X5050354Y5744800D02*
X5033446D01*
X5017826Y5738330D01*
X5005870Y5726374D01*
X4999400Y5710754D01*
Y5693846D01*
X5005870Y5678226D01*
X5017826Y5666270D01*
X5033446Y5659800D01*
X5050354D01*
X5065974Y5666270D01*
X5077930Y5678226D01*
X5084400Y5693846D01*
Y5710754D01*
X5077930Y5726374D01*
X5065974Y5738330D01*
X5050354Y5744800D01*
D02*
G37*
G36*
X5733454Y5567500D02*
X5716546D01*
X5700926Y5561030D01*
X5688970Y5549074D01*
X5682500Y5533454D01*
Y5516546D01*
X5688970Y5500926D01*
X5700926Y5488970D01*
X5716546Y5482500D01*
X5733454D01*
X5749074Y5488970D01*
X5761030Y5500926D01*
X5767500Y5516546D01*
Y5533454D01*
X5761030Y5549074D01*
X5749074Y5561030D01*
X5733454Y5567500D01*
D02*
G37*
G36*
X6108454Y5562500D02*
X6091546D01*
X6075926Y5556030D01*
X6063970Y5544074D01*
X6057500Y5528454D01*
Y5511546D01*
X6063970Y5495926D01*
X6075926Y5483970D01*
X6091546Y5477500D01*
X6108454D01*
X6124074Y5483970D01*
X6136030Y5495926D01*
X6142500Y5511546D01*
Y5528454D01*
X6136030Y5544074D01*
X6124074Y5556030D01*
X6108454Y5562500D01*
D02*
G37*
G36*
X4662500Y5646126D02*
X4587500D01*
X4565065Y5641664D01*
X4546045Y5628955D01*
X4533336Y5609935D01*
X4528874Y5587500D01*
Y5512500D01*
X4533336Y5490065D01*
X4546045Y5471045D01*
X4565065Y5458337D01*
X4587500Y5453874D01*
X4662500D01*
X4684935Y5458337D01*
X4703955Y5471045D01*
X4716663Y5490065D01*
X4721126Y5512500D01*
Y5587500D01*
X4716663Y5609935D01*
X4703955Y5628955D01*
X4684935Y5641664D01*
X4662500Y5646126D01*
D02*
G37*
G36*
X4408500D02*
X4333500D01*
X4311065Y5641664D01*
X4292045Y5628955D01*
X4279336Y5609935D01*
X4274874Y5587500D01*
Y5512500D01*
X4279336Y5490065D01*
X4292045Y5471045D01*
X4311065Y5458337D01*
X4333500Y5453874D01*
X4408500D01*
X4430935Y5458337D01*
X4449955Y5471045D01*
X4462663Y5490065D01*
X4467126Y5512500D01*
Y5587500D01*
X4462663Y5609935D01*
X4449955Y5628955D01*
X4430935Y5641664D01*
X4408500Y5646126D01*
D02*
G37*
G36*
X4012500D02*
X3937500D01*
X3915065Y5641664D01*
X3896045Y5628955D01*
X3883336Y5609935D01*
X3878874Y5587500D01*
Y5512500D01*
X3883336Y5490065D01*
X3896045Y5471045D01*
X3915065Y5458337D01*
X3937500Y5453874D01*
X4012500D01*
X4034935Y5458337D01*
X4053955Y5471045D01*
X4066663Y5490065D01*
X4071126Y5512500D01*
Y5587500D01*
X4066663Y5609935D01*
X4053955Y5628955D01*
X4034935Y5641664D01*
X4012500Y5646126D01*
D02*
G37*
G36*
X3758500D02*
X3683500D01*
X3661065Y5641664D01*
X3642045Y5628955D01*
X3629336Y5609935D01*
X3624874Y5587500D01*
Y5512500D01*
X3629336Y5490065D01*
X3642045Y5471045D01*
X3661065Y5458337D01*
X3683500Y5453874D01*
X3758500D01*
X3780935Y5458337D01*
X3799955Y5471045D01*
X3812663Y5490065D01*
X3817126Y5512500D01*
Y5587500D01*
X3812663Y5609935D01*
X3799955Y5628955D01*
X3780935Y5641664D01*
X3758500Y5646126D01*
D02*
G37*
G36*
X3387500D02*
X3312500D01*
X3290065Y5641664D01*
X3271045Y5628955D01*
X3258336Y5609935D01*
X3253874Y5587500D01*
Y5512500D01*
X3258336Y5490065D01*
X3271045Y5471045D01*
X3290065Y5458337D01*
X3312500Y5453874D01*
X3387500D01*
X3409935Y5458337D01*
X3428955Y5471045D01*
X3441663Y5490065D01*
X3446126Y5512500D01*
Y5587500D01*
X3441663Y5609935D01*
X3428955Y5628955D01*
X3409935Y5641664D01*
X3387500Y5646126D01*
D02*
G37*
G36*
X3133500D02*
X3058500D01*
X3036065Y5641664D01*
X3017045Y5628955D01*
X3004336Y5609935D01*
X2999874Y5587500D01*
Y5512500D01*
X3004336Y5490065D01*
X3017045Y5471045D01*
X3036065Y5458337D01*
X3058500Y5453874D01*
X3133500D01*
X3155935Y5458337D01*
X3174955Y5471045D01*
X3187663Y5490065D01*
X3192126Y5512500D01*
Y5587500D01*
X3187663Y5609935D01*
X3174955Y5628955D01*
X3155935Y5641664D01*
X3133500Y5646126D01*
D02*
G37*
G36*
X5108454Y5492500D02*
X5091546D01*
X5075926Y5486030D01*
X5063970Y5474074D01*
X5057500Y5458454D01*
Y5441546D01*
X5063970Y5425926D01*
X5075926Y5413970D01*
X5091546Y5407500D01*
X5108454D01*
X5124074Y5413970D01*
X5136030Y5425926D01*
X5142500Y5441546D01*
Y5458454D01*
X5136030Y5474074D01*
X5124074Y5486030D01*
X5108454Y5492500D01*
D02*
G37*
G36*
X4983454D02*
X4966546D01*
X4950926Y5486030D01*
X4938970Y5474074D01*
X4932500Y5458454D01*
Y5441546D01*
X4938970Y5425926D01*
X4950926Y5413970D01*
X4966546Y5407500D01*
X4983454D01*
X4999074Y5413970D01*
X5011030Y5425926D01*
X5017500Y5441546D01*
Y5458454D01*
X5011030Y5474074D01*
X4999074Y5486030D01*
X4983454Y5492500D01*
D02*
G37*
G36*
X3538951Y5325000D02*
X3521049D01*
X3504510Y5318149D01*
X3491851Y5305491D01*
X3485000Y5288951D01*
Y5271049D01*
X3491851Y5254510D01*
X3504510Y5241851D01*
X3521049Y5235000D01*
X3538951D01*
X3555490Y5241851D01*
X3568149Y5254510D01*
X3575000Y5271049D01*
Y5288951D01*
X3568149Y5305491D01*
X3555490Y5318149D01*
X3538951Y5325000D01*
D02*
G37*
G36*
X6625185Y5870000D02*
X6574815D01*
X6525066Y5862120D01*
X6477163Y5846555D01*
X6432284Y5823688D01*
X6391534Y5794082D01*
X6355918Y5758466D01*
X6326311Y5717716D01*
X6303444Y5672837D01*
X6287879Y5624933D01*
X6280000Y5575184D01*
Y5524815D01*
X6287879Y5475066D01*
X6303444Y5427162D01*
X6326311Y5382283D01*
X6355918Y5341534D01*
X6391534Y5305918D01*
X6432284Y5276311D01*
X6477163Y5253444D01*
X6525066Y5237879D01*
X6574815Y5230000D01*
X6625185D01*
X6674934Y5237879D01*
X6722837Y5253444D01*
X6767716Y5276311D01*
X6808466Y5305918D01*
X6844082Y5341534D01*
X6873689Y5382283D01*
X6896556Y5427162D01*
X6912121Y5475066D01*
X6920000Y5524815D01*
Y5575184D01*
X6912121Y5624933D01*
X6896556Y5672837D01*
X6873689Y5717716D01*
X6844082Y5758466D01*
X6808466Y5794082D01*
X6767716Y5823688D01*
X6722837Y5846555D01*
X6674934Y5862120D01*
X6625185Y5870000D01*
D02*
G37*
G36*
X2625185D02*
X2574816D01*
X2525067Y5862120D01*
X2477163Y5846555D01*
X2432284Y5823688D01*
X2391534Y5794082D01*
X2355918Y5758466D01*
X2326312Y5717716D01*
X2303444Y5672837D01*
X2287880Y5624933D01*
X2280000Y5575184D01*
Y5524815D01*
X2287880Y5475066D01*
X2303444Y5427162D01*
X2326312Y5382283D01*
X2355918Y5341534D01*
X2391534Y5305918D01*
X2432284Y5276311D01*
X2477163Y5253444D01*
X2525067Y5237879D01*
X2574816Y5230000D01*
X2625185D01*
X2674934Y5237879D01*
X2722838Y5253444D01*
X2767717Y5276311D01*
X2808466Y5305918D01*
X2844082Y5341534D01*
X2873689Y5382283D01*
X2896556Y5427162D01*
X2912121Y5475066D01*
X2920000Y5524815D01*
Y5575184D01*
X2912121Y5624933D01*
X2896556Y5672837D01*
X2873689Y5717716D01*
X2844082Y5758466D01*
X2808466Y5794082D01*
X2767717Y5823688D01*
X2722838Y5846555D01*
X2674934Y5862120D01*
X2625185Y5870000D01*
D02*
G37*
G36*
X4186754Y5071700D02*
X4169846D01*
X4154226Y5065230D01*
X4142270Y5053274D01*
X4135800Y5037654D01*
Y5020746D01*
X4142270Y5005126D01*
X4154226Y4993170D01*
X4169846Y4986700D01*
X4186754D01*
X4202374Y4993170D01*
X4214330Y5005126D01*
X4220800Y5020746D01*
Y5037654D01*
X4214330Y5053274D01*
X4202374Y5065230D01*
X4186754Y5071700D01*
D02*
G37*
G36*
X6712500Y5175126D02*
X6637500D01*
X6615065Y5170663D01*
X6596045Y5157954D01*
X6583337Y5138934D01*
X6578874Y5116499D01*
Y5041499D01*
X6583337Y5019064D01*
X6596045Y5000044D01*
X6615065Y4987336D01*
X6637500Y4982873D01*
X6712500D01*
X6734935Y4987336D01*
X6753955Y5000044D01*
X6766664Y5019064D01*
X6771126Y5041499D01*
Y5116499D01*
X6766664Y5138934D01*
X6753955Y5157954D01*
X6734935Y5170663D01*
X6712500Y5175126D01*
D02*
G37*
G36*
X6458500D02*
X6383500D01*
X6361065Y5170663D01*
X6342045Y5157954D01*
X6329337Y5138934D01*
X6324874Y5116499D01*
Y5041499D01*
X6329337Y5019064D01*
X6342045Y5000044D01*
X6361065Y4987336D01*
X6383500Y4982873D01*
X6458500D01*
X6480935Y4987336D01*
X6499955Y5000044D01*
X6512664Y5019064D01*
X6517126Y5041499D01*
Y5116499D01*
X6512664Y5138934D01*
X6499955Y5157954D01*
X6480935Y5170663D01*
X6458500Y5175126D01*
D02*
G37*
G36*
X5308454Y4922500D02*
X5291546D01*
X5275926Y4916030D01*
X5263970Y4904074D01*
X5257500Y4888454D01*
Y4871546D01*
X5263970Y4855926D01*
X5275926Y4843970D01*
X5291546Y4837500D01*
X5308454D01*
X5324074Y4843970D01*
X5336030Y4855926D01*
X5342500Y4871546D01*
Y4888454D01*
X5336030Y4904074D01*
X5324074Y4916030D01*
X5308454Y4922500D01*
D02*
G37*
G36*
X4618554Y4906600D02*
X4601646D01*
X4586026Y4900130D01*
X4574070Y4888174D01*
X4567600Y4872554D01*
Y4855646D01*
X4574070Y4840026D01*
X4586026Y4828070D01*
X4601646Y4821600D01*
X4618554D01*
X4634174Y4828070D01*
X4646130Y4840026D01*
X4652600Y4855646D01*
Y4872554D01*
X4646130Y4888174D01*
X4634174Y4900130D01*
X4618554Y4906600D01*
D02*
G37*
G36*
X6712500Y4921126D02*
X6637500D01*
X6615065Y4916663D01*
X6596045Y4903954D01*
X6583337Y4884934D01*
X6578874Y4862499D01*
Y4787499D01*
X6583337Y4765064D01*
X6596045Y4746044D01*
X6615065Y4733336D01*
X6637500Y4728873D01*
X6712500D01*
X6734935Y4733336D01*
X6753955Y4746044D01*
X6766664Y4765064D01*
X6771126Y4787499D01*
Y4862499D01*
X6766664Y4884934D01*
X6753955Y4903954D01*
X6734935Y4916663D01*
X6712500Y4921126D01*
D02*
G37*
G36*
X6458500D02*
X6383500D01*
X6361065Y4916663D01*
X6342045Y4903954D01*
X6329337Y4884934D01*
X6324874Y4862499D01*
Y4787499D01*
X6329337Y4765064D01*
X6342045Y4746044D01*
X6361065Y4733336D01*
X6383500Y4728873D01*
X6458500D01*
X6480935Y4733336D01*
X6499955Y4746044D01*
X6512664Y4765064D01*
X6517126Y4787499D01*
Y4862499D01*
X6512664Y4884934D01*
X6499955Y4903954D01*
X6480935Y4916663D01*
X6458500Y4921126D01*
D02*
G37*
G36*
X4986854Y4728800D02*
X4969946D01*
X4954326Y4722330D01*
X4942370Y4710374D01*
X4935900Y4694754D01*
Y4677846D01*
X4942370Y4662226D01*
X4954326Y4650270D01*
X4969946Y4643800D01*
X4986854D01*
X5002474Y4650270D01*
X5014430Y4662226D01*
X5020900Y4677846D01*
Y4694754D01*
X5014430Y4710374D01*
X5002474Y4722330D01*
X4986854Y4728800D01*
D02*
G37*
G36*
X4678454Y4707498D02*
X4661546D01*
X4645926Y4701028D01*
X4633970Y4689072D01*
X4627500Y4673452D01*
Y4656545D01*
X4633970Y4640924D01*
X4645926Y4628969D01*
X4661546Y4622499D01*
X4678454D01*
X4694074Y4628969D01*
X4706030Y4640924D01*
X4712500Y4656545D01*
Y4673452D01*
X4706030Y4689072D01*
X4694074Y4701028D01*
X4678454Y4707498D01*
D02*
G37*
G36*
X5383454Y4617500D02*
X5366546D01*
X5350926Y4611030D01*
X5338970Y4599074D01*
X5332500Y4583454D01*
Y4566546D01*
X5338970Y4550926D01*
X5350926Y4538970D01*
X5366546Y4532500D01*
X5383454D01*
X5399074Y4538970D01*
X5411030Y4550926D01*
X5417500Y4566546D01*
Y4583454D01*
X5411030Y4599074D01*
X5399074Y4611030D01*
X5383454Y4617500D01*
D02*
G37*
G36*
X4946355D02*
X4929448D01*
X4913827Y4611030D01*
X4901872Y4599074D01*
X4895402Y4583454D01*
Y4566546D01*
X4901872Y4550926D01*
X4913827Y4538970D01*
X4929448Y4532500D01*
X4946355D01*
X4961976Y4538970D01*
X4973931Y4550926D01*
X4980401Y4566546D01*
Y4583454D01*
X4973931Y4599074D01*
X4961976Y4611030D01*
X4946355Y4617500D01*
D02*
G37*
G36*
X5488454Y4602500D02*
X5471546D01*
X5455926Y4596030D01*
X5443970Y4584074D01*
X5437500Y4568454D01*
Y4551546D01*
X5443970Y4535926D01*
X5455926Y4523970D01*
X5471546Y4517500D01*
X5488454D01*
X5504074Y4523970D01*
X5516030Y4535926D01*
X5522500Y4551546D01*
Y4568454D01*
X5516030Y4584074D01*
X5504074Y4596030D01*
X5488454Y4602500D01*
D02*
G37*
G36*
X3928454D02*
X3911546D01*
X3895926Y4596030D01*
X3883970Y4584074D01*
X3877500Y4568454D01*
Y4551546D01*
X3883970Y4535926D01*
X3895926Y4523970D01*
X3911546Y4517500D01*
X3928454D01*
X3944074Y4523970D01*
X3956030Y4535926D01*
X3962500Y4551546D01*
Y4568454D01*
X3956030Y4584074D01*
X3944074Y4596030D01*
X3928454Y4602500D01*
D02*
G37*
G36*
X4368454Y4592500D02*
X4351546D01*
X4335926Y4586030D01*
X4323970Y4574074D01*
X4317500Y4558454D01*
Y4541546D01*
X4323970Y4525926D01*
X4335926Y4513970D01*
X4351546Y4507500D01*
X4368454D01*
X4384074Y4513970D01*
X4396030Y4525926D01*
X4402500Y4541546D01*
Y4558454D01*
X4396030Y4574074D01*
X4384074Y4586030D01*
X4368454Y4592500D01*
D02*
G37*
G36*
X5183455Y4567499D02*
X5166548D01*
X5150927Y4561028D01*
X5138972Y4549073D01*
X5132502Y4533452D01*
Y4516545D01*
X5138972Y4500925D01*
X5150927Y4488969D01*
X5166548Y4482499D01*
X5183455D01*
X5199075Y4488969D01*
X5211031Y4500925D01*
X5217501Y4516545D01*
Y4533452D01*
X5211031Y4549073D01*
X5199075Y4561028D01*
X5183455Y4567499D01*
D02*
G37*
G36*
X6712500Y4571126D02*
X6637500D01*
X6615065Y4566663D01*
X6596045Y4553955D01*
X6583337Y4534935D01*
X6578874Y4512500D01*
Y4437500D01*
X6583337Y4415065D01*
X6596045Y4396045D01*
X6615065Y4383336D01*
X6637500Y4378874D01*
X6712500D01*
X6734935Y4383336D01*
X6753955Y4396045D01*
X6766664Y4415065D01*
X6771126Y4437500D01*
Y4512500D01*
X6766664Y4534935D01*
X6753955Y4553955D01*
X6734935Y4566663D01*
X6712500Y4571126D01*
D02*
G37*
G36*
X6458500D02*
X6383500D01*
X6361065Y4566663D01*
X6342045Y4553955D01*
X6329337Y4534935D01*
X6324874Y4512500D01*
Y4437500D01*
X6329337Y4415065D01*
X6342045Y4396045D01*
X6361065Y4383336D01*
X6383500Y4378874D01*
X6458500D01*
X6480935Y4383336D01*
X6499955Y4396045D01*
X6512664Y4415065D01*
X6517126Y4437500D01*
Y4512500D01*
X6512664Y4534935D01*
X6499955Y4553955D01*
X6480935Y4566663D01*
X6458500Y4571126D01*
D02*
G37*
G36*
X6204500D02*
X6129500D01*
X6107065Y4566663D01*
X6088045Y4553955D01*
X6075337Y4534935D01*
X6070874Y4512500D01*
Y4437500D01*
X6075337Y4415065D01*
X6088045Y4396045D01*
X6107065Y4383336D01*
X6129500Y4378874D01*
X6204500D01*
X6226935Y4383336D01*
X6245955Y4396045D01*
X6258664Y4415065D01*
X6263126Y4437500D01*
Y4512500D01*
X6258664Y4534935D01*
X6245955Y4553955D01*
X6226935Y4566663D01*
X6204500Y4571126D01*
D02*
G37*
G36*
X5708454Y4212500D02*
X5691546D01*
X5675926Y4206030D01*
X5663970Y4194074D01*
X5657500Y4178454D01*
Y4161546D01*
X5663970Y4145926D01*
X5675926Y4133970D01*
X5691546Y4127500D01*
X5708454D01*
X5724074Y4133970D01*
X5736030Y4145926D01*
X5742500Y4161546D01*
Y4178454D01*
X5736030Y4194074D01*
X5724074Y4206030D01*
X5708454Y4212500D01*
D02*
G37*
G36*
X4948454Y4122500D02*
X4931546D01*
X4915926Y4116030D01*
X4903970Y4104074D01*
X4897500Y4088454D01*
Y4071546D01*
X4903970Y4055926D01*
X4915926Y4043970D01*
X4931546Y4037500D01*
X4948454D01*
X4964074Y4043970D01*
X4976030Y4055926D01*
X4982500Y4071546D01*
Y4088454D01*
X4976030Y4104074D01*
X4964074Y4116030D01*
X4948454Y4122500D01*
D02*
G37*
G36*
X6543454Y3987500D02*
X6526546D01*
X6510926Y3981030D01*
X6498970Y3969074D01*
X6492500Y3953454D01*
Y3936546D01*
X6498970Y3920926D01*
X6510926Y3908970D01*
X6526546Y3902500D01*
X6543454D01*
X6559074Y3908970D01*
X6571030Y3920926D01*
X6577500Y3936546D01*
Y3953454D01*
X6571030Y3969074D01*
X6559074Y3981030D01*
X6543454Y3987500D01*
D02*
G37*
G36*
X5886014Y3961720D02*
X5869106D01*
X5853486Y3955250D01*
X5841530Y3943294D01*
X5835060Y3927674D01*
Y3910766D01*
X5841530Y3895146D01*
X5853486Y3883190D01*
X5869106Y3876720D01*
X5886014D01*
X5901634Y3883190D01*
X5913590Y3895146D01*
X5920060Y3910766D01*
Y3927674D01*
X5913590Y3943294D01*
X5901634Y3955250D01*
X5886014Y3961720D01*
D02*
G37*
G36*
X6078454Y3932500D02*
X6061546D01*
X6045926Y3926030D01*
X6033970Y3914074D01*
X6027500Y3898454D01*
Y3881546D01*
X6033970Y3865926D01*
X6045926Y3853970D01*
X6061546Y3847500D01*
X6078454D01*
X6094074Y3853970D01*
X6106030Y3865926D01*
X6112500Y3881546D01*
Y3898454D01*
X6106030Y3914074D01*
X6094074Y3926030D01*
X6078454Y3932500D01*
D02*
G37*
G36*
X5083454Y3917500D02*
X5066546D01*
X5050926Y3911030D01*
X5038970Y3899074D01*
X5032500Y3883454D01*
Y3866546D01*
X5038970Y3850926D01*
X5050926Y3838970D01*
X5066546Y3832500D01*
X5083454D01*
X5099074Y3838970D01*
X5111030Y3850926D01*
X5117500Y3866546D01*
Y3883454D01*
X5111030Y3899074D01*
X5099074Y3911030D01*
X5083454Y3917500D01*
D02*
G37*
G36*
X5783454Y3895399D02*
X5766546D01*
X5750926Y3888929D01*
X5738970Y3876974D01*
X5732500Y3861353D01*
Y3844446D01*
X5738970Y3828825D01*
X5750926Y3816870D01*
X5766546Y3810400D01*
X5783454D01*
X5799074Y3816870D01*
X5811030Y3828825D01*
X5817500Y3844446D01*
Y3861353D01*
X5811030Y3876974D01*
X5799074Y3888929D01*
X5783454Y3895399D01*
D02*
G37*
G36*
X4928454Y3802500D02*
X4911546D01*
X4895926Y3796030D01*
X4883970Y3784074D01*
X4877500Y3768454D01*
Y3751546D01*
X4883970Y3735926D01*
X4895926Y3723970D01*
X4911546Y3717500D01*
X4928454D01*
X4944074Y3723970D01*
X4956030Y3735926D01*
X4962500Y3751546D01*
Y3768454D01*
X4956030Y3784074D01*
X4944074Y3796030D01*
X4928454Y3802500D01*
D02*
G37*
G36*
X5224322Y3758368D02*
X5207415D01*
X5191794Y3751898D01*
X5179839Y3739942D01*
X5173369Y3724322D01*
Y3707415D01*
X5179839Y3691794D01*
X5191794Y3679839D01*
X5207415Y3673369D01*
X5224322D01*
X5239943Y3679839D01*
X5251898Y3691794D01*
X5258368Y3707415D01*
Y3724322D01*
X5251898Y3739942D01*
X5239943Y3751898D01*
X5224322Y3758368D01*
D02*
G37*
G36*
X4208454Y3742500D02*
X4191546D01*
X4175926Y3736030D01*
X4163970Y3724074D01*
X4157500Y3708454D01*
Y3691546D01*
X4163970Y3675926D01*
X4175926Y3663970D01*
X4191546Y3657500D01*
X4208454D01*
X4224074Y3663970D01*
X4236030Y3675926D01*
X4242500Y3691546D01*
Y3708454D01*
X4236030Y3724074D01*
X4224074Y3736030D01*
X4208454Y3742500D01*
D02*
G37*
G36*
X4783454Y3667500D02*
X4766546D01*
X4750926Y3661030D01*
X4738970Y3649074D01*
X4732500Y3633454D01*
Y3616546D01*
X4738970Y3600926D01*
X4750926Y3588970D01*
X4766546Y3582500D01*
X4783454D01*
X4799074Y3588970D01*
X4811030Y3600926D01*
X4817500Y3616546D01*
Y3633454D01*
X4811030Y3649074D01*
X4799074Y3661030D01*
X4783454Y3667500D01*
D02*
G37*
G36*
X4583454Y3542500D02*
X4566546D01*
X4550926Y3536030D01*
X4538970Y3524074D01*
X4532500Y3508454D01*
Y3491546D01*
X4538970Y3475926D01*
X4550926Y3463970D01*
X4566546Y3457500D01*
X4583454D01*
X4599074Y3463970D01*
X4611030Y3475926D01*
X4617500Y3491546D01*
Y3508454D01*
X4611030Y3524074D01*
X4599074Y3536030D01*
X4583454Y3542500D01*
D02*
G37*
G36*
X5735554Y3315400D02*
X5718646D01*
X5703026Y3308930D01*
X5691070Y3296974D01*
X5684600Y3281354D01*
Y3264446D01*
X5691070Y3248826D01*
X5703026Y3236870D01*
X5718646Y3230400D01*
X5735554D01*
X5751174Y3236870D01*
X5763130Y3248826D01*
X5769600Y3264446D01*
Y3281354D01*
X5763130Y3296974D01*
X5751174Y3308930D01*
X5735554Y3315400D01*
D02*
G37*
G36*
X3933455Y3307501D02*
X3916548D01*
X3900927Y3301031D01*
X3888972Y3289076D01*
X3882502Y3273455D01*
Y3256548D01*
X3888972Y3240927D01*
X3900927Y3228972D01*
X3916548Y3222502D01*
X3933455D01*
X3949076Y3228972D01*
X3961031Y3240927D01*
X3967501Y3256548D01*
Y3273455D01*
X3961031Y3289076D01*
X3949076Y3301031D01*
X3933455Y3307501D01*
D02*
G37*
G36*
X4308454Y3192500D02*
X4291546D01*
X4275926Y3186030D01*
X4263970Y3174074D01*
X4257500Y3158454D01*
Y3141546D01*
X4263970Y3125926D01*
X4275926Y3113970D01*
X4291546Y3107500D01*
X4308454D01*
X4324074Y3113970D01*
X4336030Y3125926D01*
X4342500Y3141546D01*
Y3158454D01*
X4336030Y3174074D01*
X4324074Y3186030D01*
X4308454Y3192500D01*
D02*
G37*
G36*
X4983454Y3167500D02*
X4966546D01*
X4950926Y3161030D01*
X4938970Y3149074D01*
X4932500Y3133454D01*
Y3116546D01*
X4938970Y3100926D01*
X4950926Y3088970D01*
X4966546Y3082500D01*
X4983454D01*
X4999074Y3088970D01*
X5011030Y3100926D01*
X5017500Y3116546D01*
Y3133454D01*
X5011030Y3149074D01*
X4999074Y3161030D01*
X4983454Y3167500D01*
D02*
G37*
G36*
X4850739Y3056914D02*
X4833831D01*
X4818211Y3050444D01*
X4806255Y3038488D01*
X4799785Y3022868D01*
Y3005960D01*
X4806255Y2990340D01*
X4818211Y2978384D01*
X4833831Y2971914D01*
X4850739D01*
X4866359Y2978384D01*
X4878315Y2990340D01*
X4884785Y3005960D01*
Y3022868D01*
X4878315Y3038488D01*
X4866359Y3050444D01*
X4850739Y3056914D01*
D02*
G37*
G36*
X4283454Y3042500D02*
X4266546D01*
X4250926Y3036030D01*
X4238970Y3024074D01*
X4232500Y3008454D01*
Y2991546D01*
X4238970Y2975926D01*
X4250926Y2963970D01*
X4266546Y2957500D01*
X4283454D01*
X4299074Y2963970D01*
X4311030Y2975926D01*
X4317500Y2991546D01*
Y3008454D01*
X4311030Y3024074D01*
X4299074Y3036030D01*
X4283454Y3042500D01*
D02*
G37*
G36*
X2599254Y3027000D02*
X2582346D01*
X2566726Y3020530D01*
X2554770Y3008574D01*
X2548300Y2992954D01*
Y2976046D01*
X2554770Y2960426D01*
X2566726Y2948470D01*
X2582346Y2942000D01*
X2599254D01*
X2614874Y2948470D01*
X2626830Y2960426D01*
X2633300Y2976046D01*
Y2992954D01*
X2626830Y3008574D01*
X2614874Y3020530D01*
X2599254Y3027000D01*
D02*
G37*
G36*
X6998454Y2872500D02*
X6981546D01*
X6965926Y2866030D01*
X6953970Y2854074D01*
X6947500Y2838454D01*
Y2821546D01*
X6953970Y2805926D01*
X6965926Y2793970D01*
X6981546Y2787500D01*
X6998454D01*
X7014074Y2793970D01*
X7026030Y2805926D01*
X7032500Y2821546D01*
Y2838454D01*
X7026030Y2854074D01*
X7014074Y2866030D01*
X6998454Y2872500D01*
D02*
G37*
G36*
X5638454Y2652500D02*
X5621546D01*
X5605926Y2646030D01*
X5593970Y2634074D01*
X5587500Y2618454D01*
Y2601546D01*
X5593970Y2585926D01*
X5605926Y2573970D01*
X5621546Y2567500D01*
X5638454D01*
X5654074Y2573970D01*
X5666030Y2585926D01*
X5672500Y2601546D01*
Y2618454D01*
X5666030Y2634074D01*
X5654074Y2646030D01*
X5638454Y2652500D01*
D02*
G37*
G36*
X6241499Y2475126D02*
X6166499D01*
X6144064Y2470664D01*
X6125044Y2457955D01*
X6112335Y2438935D01*
X6107872Y2416500D01*
Y2341500D01*
X6112335Y2319065D01*
X6125044Y2300045D01*
X6144064Y2287337D01*
X6166499Y2282874D01*
X6241499D01*
X6263934Y2287337D01*
X6282954Y2300045D01*
X6295662Y2319065D01*
X6300125Y2341500D01*
Y2416500D01*
X6295662Y2438935D01*
X6282954Y2457955D01*
X6263934Y2470664D01*
X6241499Y2475126D01*
D02*
G37*
G36*
X5987499D02*
X5912499D01*
X5890064Y2470664D01*
X5871044Y2457955D01*
X5858335Y2438935D01*
X5853872Y2416500D01*
Y2341500D01*
X5858335Y2319065D01*
X5871044Y2300045D01*
X5890064Y2287337D01*
X5912499Y2282874D01*
X5987499D01*
X6009934Y2287337D01*
X6028954Y2300045D01*
X6041662Y2319065D01*
X6046125Y2341500D01*
Y2416500D01*
X6041662Y2438935D01*
X6028954Y2457955D01*
X6009934Y2470664D01*
X5987499Y2475126D01*
D02*
G37*
G36*
X5341499D02*
X5266499D01*
X5244064Y2470664D01*
X5225044Y2457955D01*
X5212335Y2438935D01*
X5207872Y2416500D01*
Y2341500D01*
X5212335Y2319065D01*
X5225044Y2300045D01*
X5244064Y2287337D01*
X5266499Y2282874D01*
X5341499D01*
X5363934Y2287337D01*
X5382954Y2300045D01*
X5395662Y2319065D01*
X5400125Y2341500D01*
Y2416500D01*
X5395662Y2438935D01*
X5382954Y2457955D01*
X5363934Y2470664D01*
X5341499Y2475126D01*
D02*
G37*
G36*
X5087499D02*
X5012499D01*
X4990064Y2470664D01*
X4971044Y2457955D01*
X4958335Y2438935D01*
X4953872Y2416500D01*
Y2341500D01*
X4958335Y2319065D01*
X4971044Y2300045D01*
X4990064Y2287337D01*
X5012499Y2282874D01*
X5087499D01*
X5109934Y2287337D01*
X5128954Y2300045D01*
X5141662Y2319065D01*
X5146125Y2341500D01*
Y2416500D01*
X5141662Y2438935D01*
X5128954Y2457955D01*
X5109934Y2470664D01*
X5087499Y2475126D01*
D02*
G37*
G36*
X4441499D02*
X4366499D01*
X4344064Y2470664D01*
X4325044Y2457955D01*
X4312336Y2438935D01*
X4307873Y2416500D01*
Y2341500D01*
X4312336Y2319065D01*
X4325044Y2300045D01*
X4344064Y2287337D01*
X4366499Y2282874D01*
X4441499D01*
X4463934Y2287337D01*
X4482954Y2300045D01*
X4495663Y2319065D01*
X4500125Y2341500D01*
Y2416500D01*
X4495663Y2438935D01*
X4482954Y2457955D01*
X4463934Y2470664D01*
X4441499Y2475126D01*
D02*
G37*
G36*
X4187499D02*
X4112499D01*
X4090064Y2470664D01*
X4071044Y2457955D01*
X4058336Y2438935D01*
X4053873Y2416500D01*
Y2341500D01*
X4058336Y2319065D01*
X4071044Y2300045D01*
X4090064Y2287337D01*
X4112499Y2282874D01*
X4187499D01*
X4209934Y2287337D01*
X4228954Y2300045D01*
X4241663Y2319065D01*
X4246125Y2341500D01*
Y2416500D01*
X4241663Y2438935D01*
X4228954Y2457955D01*
X4209934Y2470664D01*
X4187499Y2475126D01*
D02*
G37*
G36*
X3541499D02*
X3466500D01*
X3444064Y2470664D01*
X3425044Y2457955D01*
X3412336Y2438935D01*
X3407873Y2416500D01*
Y2341500D01*
X3412336Y2319065D01*
X3425044Y2300045D01*
X3444064Y2287337D01*
X3466500Y2282874D01*
X3541499D01*
X3563934Y2287337D01*
X3582954Y2300045D01*
X3595663Y2319065D01*
X3600126Y2341500D01*
Y2416500D01*
X3595663Y2438935D01*
X3582954Y2457955D01*
X3563934Y2470664D01*
X3541499Y2475126D01*
D02*
G37*
G36*
X3287499D02*
X3212500D01*
X3190064Y2470664D01*
X3171044Y2457955D01*
X3158336Y2438935D01*
X3153873Y2416500D01*
Y2341500D01*
X3158336Y2319065D01*
X3171044Y2300045D01*
X3190064Y2287337D01*
X3212500Y2282874D01*
X3287499D01*
X3309934Y2287337D01*
X3328954Y2300045D01*
X3341663Y2319065D01*
X3346126Y2341500D01*
Y2416500D01*
X3341663Y2438935D01*
X3328954Y2457955D01*
X3309934Y2470664D01*
X3287499Y2475126D01*
D02*
G37*
G36*
X2637500D02*
X2562500D01*
X2540065Y2470664D01*
X2521045Y2457955D01*
X2508336Y2438935D01*
X2503874Y2416500D01*
Y2341500D01*
X2508336Y2319065D01*
X2521045Y2300045D01*
X2540065Y2287337D01*
X2562500Y2282874D01*
X2637500D01*
X2659935Y2287337D01*
X2678955Y2300045D01*
X2691663Y2319065D01*
X2696126Y2341500D01*
Y2416500D01*
X2691663Y2438935D01*
X2678955Y2457955D01*
X2659935Y2470664D01*
X2637500Y2475126D01*
D02*
G37*
G36*
X2383500D02*
X2308500D01*
X2286065Y2470664D01*
X2267045Y2457955D01*
X2254336Y2438935D01*
X2249874Y2416500D01*
Y2341500D01*
X2254336Y2319065D01*
X2267045Y2300045D01*
X2286065Y2287337D01*
X2308500Y2282874D01*
X2383500D01*
X2405935Y2287337D01*
X2424955Y2300045D01*
X2437663Y2319065D01*
X2442126Y2341500D01*
Y2416500D01*
X2437663Y2438935D01*
X2424955Y2457955D01*
X2405935Y2470664D01*
X2383500Y2475126D01*
D02*
G37*
G36*
X6241499Y2221126D02*
X6166499D01*
X6144064Y2216664D01*
X6125044Y2203955D01*
X6112335Y2184935D01*
X6107872Y2162500D01*
Y2087500D01*
X6112335Y2065065D01*
X6125044Y2046045D01*
X6144064Y2033337D01*
X6166499Y2028874D01*
X6241499D01*
X6263934Y2033337D01*
X6282954Y2046045D01*
X6295662Y2065065D01*
X6300125Y2087500D01*
Y2162500D01*
X6295662Y2184935D01*
X6282954Y2203955D01*
X6263934Y2216664D01*
X6241499Y2221126D01*
D02*
G37*
G36*
X5987499D02*
X5912499D01*
X5890064Y2216664D01*
X5871044Y2203955D01*
X5858335Y2184935D01*
X5853872Y2162500D01*
Y2087500D01*
X5858335Y2065065D01*
X5871044Y2046045D01*
X5890064Y2033337D01*
X5912499Y2028874D01*
X5987499D01*
X6009934Y2033337D01*
X6028954Y2046045D01*
X6041662Y2065065D01*
X6046125Y2087500D01*
Y2162500D01*
X6041662Y2184935D01*
X6028954Y2203955D01*
X6009934Y2216664D01*
X5987499Y2221126D01*
D02*
G37*
G36*
X5341499D02*
X5266499D01*
X5244064Y2216664D01*
X5225044Y2203955D01*
X5212335Y2184935D01*
X5207872Y2162500D01*
Y2087500D01*
X5212335Y2065065D01*
X5225044Y2046045D01*
X5244064Y2033337D01*
X5266499Y2028874D01*
X5341499D01*
X5363934Y2033337D01*
X5382954Y2046045D01*
X5395662Y2065065D01*
X5400125Y2087500D01*
Y2162500D01*
X5395662Y2184935D01*
X5382954Y2203955D01*
X5363934Y2216664D01*
X5341499Y2221126D01*
D02*
G37*
G36*
X5087499D02*
X5012499D01*
X4990064Y2216664D01*
X4971044Y2203955D01*
X4958335Y2184935D01*
X4953872Y2162500D01*
Y2087500D01*
X4958335Y2065065D01*
X4971044Y2046045D01*
X4990064Y2033337D01*
X5012499Y2028874D01*
X5087499D01*
X5109934Y2033337D01*
X5128954Y2046045D01*
X5141662Y2065065D01*
X5146125Y2087500D01*
Y2162500D01*
X5141662Y2184935D01*
X5128954Y2203955D01*
X5109934Y2216664D01*
X5087499Y2221126D01*
D02*
G37*
G36*
X4441499D02*
X4366499D01*
X4344064Y2216664D01*
X4325044Y2203955D01*
X4312336Y2184935D01*
X4307873Y2162500D01*
Y2087500D01*
X4312336Y2065065D01*
X4325044Y2046045D01*
X4344064Y2033337D01*
X4366499Y2028874D01*
X4441499D01*
X4463934Y2033337D01*
X4482954Y2046045D01*
X4495663Y2065065D01*
X4500125Y2087500D01*
Y2162500D01*
X4495663Y2184935D01*
X4482954Y2203955D01*
X4463934Y2216664D01*
X4441499Y2221126D01*
D02*
G37*
G36*
X4187499D02*
X4112499D01*
X4090064Y2216664D01*
X4071044Y2203955D01*
X4058336Y2184935D01*
X4053873Y2162500D01*
Y2087500D01*
X4058336Y2065065D01*
X4071044Y2046045D01*
X4090064Y2033337D01*
X4112499Y2028874D01*
X4187499D01*
X4209934Y2033337D01*
X4228954Y2046045D01*
X4241663Y2065065D01*
X4246125Y2087500D01*
Y2162500D01*
X4241663Y2184935D01*
X4228954Y2203955D01*
X4209934Y2216664D01*
X4187499Y2221126D01*
D02*
G37*
G36*
X3541499D02*
X3466500D01*
X3444064Y2216664D01*
X3425044Y2203955D01*
X3412336Y2184935D01*
X3407873Y2162500D01*
Y2087500D01*
X3412336Y2065065D01*
X3425044Y2046045D01*
X3444064Y2033337D01*
X3466500Y2028874D01*
X3541499D01*
X3563934Y2033337D01*
X3582954Y2046045D01*
X3595663Y2065065D01*
X3600126Y2087500D01*
Y2162500D01*
X3595663Y2184935D01*
X3582954Y2203955D01*
X3563934Y2216664D01*
X3541499Y2221126D01*
D02*
G37*
G36*
X3287499D02*
X3212500D01*
X3190064Y2216664D01*
X3171044Y2203955D01*
X3158336Y2184935D01*
X3153873Y2162500D01*
Y2087500D01*
X3158336Y2065065D01*
X3171044Y2046045D01*
X3190064Y2033337D01*
X3212500Y2028874D01*
X3287499D01*
X3309934Y2033337D01*
X3328954Y2046045D01*
X3341663Y2065065D01*
X3346126Y2087500D01*
Y2162500D01*
X3341663Y2184935D01*
X3328954Y2203955D01*
X3309934Y2216664D01*
X3287499Y2221126D01*
D02*
G37*
G36*
X2637500D02*
X2562500D01*
X2540065Y2216664D01*
X2521045Y2203955D01*
X2508336Y2184935D01*
X2503874Y2162500D01*
Y2087500D01*
X2508336Y2065065D01*
X2521045Y2046045D01*
X2540065Y2033337D01*
X2562500Y2028874D01*
X2637500D01*
X2659935Y2033337D01*
X2678955Y2046045D01*
X2691663Y2065065D01*
X2696126Y2087500D01*
Y2162500D01*
X2691663Y2184935D01*
X2678955Y2203955D01*
X2659935Y2216664D01*
X2637500Y2221126D01*
D02*
G37*
G36*
X2383500D02*
X2308500D01*
X2286065Y2216664D01*
X2267045Y2203955D01*
X2254336Y2184935D01*
X2249874Y2162500D01*
Y2087500D01*
X2254336Y2065065D01*
X2267045Y2046045D01*
X2286065Y2033337D01*
X2308500Y2028874D01*
X2383500D01*
X2405935Y2033337D01*
X2424955Y2046045D01*
X2437663Y2065065D01*
X2442126Y2087500D01*
Y2162500D01*
X2437663Y2184935D01*
X2424955Y2203955D01*
X2405935Y2216664D01*
X2383500Y2221126D01*
D02*
G37*
G36*
X5691500Y1650126D02*
X5616500D01*
X5594065Y1645663D01*
X5575045Y1632955D01*
X5562337Y1613935D01*
X5557874Y1591500D01*
Y1516500D01*
X5562337Y1494065D01*
X5575045Y1475045D01*
X5594065Y1462336D01*
X5616500Y1457874D01*
X5691500D01*
X5713935Y1462336D01*
X5732955Y1475045D01*
X5745664Y1494065D01*
X5750126Y1516500D01*
Y1591500D01*
X5745664Y1613935D01*
X5732955Y1632955D01*
X5713935Y1645663D01*
X5691500Y1650126D01*
D02*
G37*
G36*
X5437500D02*
X5362500D01*
X5340065Y1645663D01*
X5321045Y1632955D01*
X5308337Y1613935D01*
X5303874Y1591500D01*
Y1516500D01*
X5308337Y1494065D01*
X5321045Y1475045D01*
X5340065Y1462336D01*
X5362500Y1457874D01*
X5437500D01*
X5459935Y1462336D01*
X5478955Y1475045D01*
X5491664Y1494065D01*
X5496126Y1516500D01*
Y1591500D01*
X5491664Y1613935D01*
X5478955Y1632955D01*
X5459935Y1645663D01*
X5437500Y1650126D01*
D02*
G37*
G36*
X3866500D02*
X3791500D01*
X3769065Y1645663D01*
X3750045Y1632955D01*
X3737336Y1613935D01*
X3732874Y1591500D01*
Y1516500D01*
X3737336Y1494065D01*
X3750045Y1475045D01*
X3769065Y1462336D01*
X3791500Y1457874D01*
X3866500D01*
X3888935Y1462336D01*
X3907955Y1475045D01*
X3920663Y1494065D01*
X3925126Y1516500D01*
Y1591500D01*
X3920663Y1613935D01*
X3907955Y1632955D01*
X3888935Y1645663D01*
X3866500Y1650126D01*
D02*
G37*
G36*
X3612500D02*
X3537500D01*
X3515065Y1645663D01*
X3496045Y1632955D01*
X3483336Y1613935D01*
X3478874Y1591500D01*
Y1516500D01*
X3483336Y1494065D01*
X3496045Y1475045D01*
X3515065Y1462336D01*
X3537500Y1457874D01*
X3612500D01*
X3634935Y1462336D01*
X3653955Y1475045D01*
X3666663Y1494065D01*
X3671126Y1516500D01*
Y1591500D01*
X3666663Y1613935D01*
X3653955Y1632955D01*
X3634935Y1645663D01*
X3612500Y1650126D01*
D02*
G37*
G36*
X3358500D02*
X3283500D01*
X3261065Y1645663D01*
X3242045Y1632955D01*
X3229336Y1613935D01*
X3224874Y1591500D01*
Y1516500D01*
X3229336Y1494065D01*
X3242045Y1475045D01*
X3261065Y1462336D01*
X3283500Y1457874D01*
X3358500D01*
X3380935Y1462336D01*
X3399955Y1475045D01*
X3412663Y1494065D01*
X3417126Y1516500D01*
Y1591500D01*
X3412663Y1613935D01*
X3399955Y1632955D01*
X3380935Y1645663D01*
X3358500Y1650126D01*
D02*
G37*
G36*
X4941500Y1646126D02*
X4866500D01*
X4844065Y1641663D01*
X4825045Y1628955D01*
X4812337Y1609935D01*
X4807874Y1587500D01*
Y1512500D01*
X4812337Y1490065D01*
X4825045Y1471045D01*
X4844065Y1458336D01*
X4866500Y1453874D01*
X4941500D01*
X4963935Y1458336D01*
X4982955Y1471045D01*
X4995664Y1490065D01*
X5000126Y1512500D01*
Y1587500D01*
X4995664Y1609935D01*
X4982955Y1628955D01*
X4963935Y1641663D01*
X4941500Y1646126D01*
D02*
G37*
G36*
X4687500D02*
X4612500D01*
X4590065Y1641663D01*
X4571045Y1628955D01*
X4558337Y1609935D01*
X4553874Y1587500D01*
Y1512500D01*
X4558337Y1490065D01*
X4571045Y1471045D01*
X4590065Y1458336D01*
X4612500Y1453874D01*
X4687500D01*
X4709935Y1458336D01*
X4728955Y1471045D01*
X4741664Y1490065D01*
X4746126Y1512500D01*
Y1587500D01*
X4741664Y1609935D01*
X4728955Y1628955D01*
X4709935Y1641663D01*
X4687500Y1646126D01*
D02*
G37*
G36*
X4433500D02*
X4358500D01*
X4336065Y1641663D01*
X4317045Y1628955D01*
X4304337Y1609935D01*
X4299874Y1587500D01*
Y1512500D01*
X4304337Y1490065D01*
X4317045Y1471045D01*
X4336065Y1458336D01*
X4358500Y1453874D01*
X4433500D01*
X4455935Y1458336D01*
X4474955Y1471045D01*
X4487664Y1490065D01*
X4492126Y1512500D01*
Y1587500D01*
X4487664Y1609935D01*
X4474955Y1628955D01*
X4455935Y1641663D01*
X4433500Y1646126D01*
D02*
G37*
G36*
X6625185Y1870000D02*
X6574815D01*
X6525066Y1862120D01*
X6477163Y1846556D01*
X6432284Y1823689D01*
X6391534Y1794082D01*
X6355918Y1758466D01*
X6326311Y1717716D01*
X6303444Y1672837D01*
X6287879Y1624934D01*
X6280000Y1575185D01*
Y1524815D01*
X6287879Y1475066D01*
X6303444Y1427163D01*
X6326311Y1382283D01*
X6355918Y1341534D01*
X6391534Y1305918D01*
X6432284Y1276311D01*
X6477163Y1253444D01*
X6525066Y1237879D01*
X6574815Y1230000D01*
X6625185D01*
X6674934Y1237879D01*
X6722837Y1253444D01*
X6767716Y1276311D01*
X6808466Y1305918D01*
X6844082Y1341534D01*
X6873689Y1382283D01*
X6896556Y1427163D01*
X6912121Y1475066D01*
X6920000Y1524815D01*
Y1575185D01*
X6912121Y1624934D01*
X6896556Y1672837D01*
X6873689Y1717716D01*
X6844082Y1758466D01*
X6808466Y1794082D01*
X6767716Y1823689D01*
X6722837Y1846556D01*
X6674934Y1862120D01*
X6625185Y1870000D01*
D02*
G37*
G36*
X2625185D02*
X2574816D01*
X2525067Y1862120D01*
X2477163Y1846556D01*
X2432284Y1823689D01*
X2391534Y1794082D01*
X2355918Y1758466D01*
X2326312Y1717716D01*
X2303444Y1672837D01*
X2287880Y1624934D01*
X2280000Y1575185D01*
Y1524815D01*
X2287880Y1475066D01*
X2303444Y1427163D01*
X2326312Y1382283D01*
X2355918Y1341534D01*
X2391534Y1305918D01*
X2432284Y1276311D01*
X2477163Y1253444D01*
X2525067Y1237879D01*
X2574816Y1230000D01*
X2625185D01*
X2674934Y1237879D01*
X2722838Y1253444D01*
X2767717Y1276311D01*
X2808466Y1305918D01*
X2844082Y1341534D01*
X2873689Y1382283D01*
X2896556Y1427163D01*
X2912121Y1475066D01*
X2920000Y1524815D01*
Y1575185D01*
X2912121Y1624934D01*
X2896556Y1672837D01*
X2873689Y1717716D01*
X2844082Y1758466D01*
X2808466Y1794082D01*
X2767717Y1823689D01*
X2722838Y1846556D01*
X2674934Y1862120D01*
X2625185Y1870000D01*
D02*
G37*
G36*
X5691500Y1396126D02*
X5616500D01*
X5594065Y1391663D01*
X5575045Y1378955D01*
X5562337Y1359935D01*
X5557874Y1337500D01*
Y1262500D01*
X5562337Y1240065D01*
X5575045Y1221045D01*
X5594065Y1208336D01*
X5616500Y1203874D01*
X5691500D01*
X5713935Y1208336D01*
X5732955Y1221045D01*
X5745664Y1240065D01*
X5750126Y1262500D01*
Y1337500D01*
X5745664Y1359935D01*
X5732955Y1378955D01*
X5713935Y1391663D01*
X5691500Y1396126D01*
D02*
G37*
G36*
X5437500D02*
X5362500D01*
X5340065Y1391663D01*
X5321045Y1378955D01*
X5308337Y1359935D01*
X5303874Y1337500D01*
Y1262500D01*
X5308337Y1240065D01*
X5321045Y1221045D01*
X5340065Y1208336D01*
X5362500Y1203874D01*
X5437500D01*
X5459935Y1208336D01*
X5478955Y1221045D01*
X5491664Y1240065D01*
X5496126Y1262500D01*
Y1337500D01*
X5491664Y1359935D01*
X5478955Y1378955D01*
X5459935Y1391663D01*
X5437500Y1396126D01*
D02*
G37*
G36*
X3866500D02*
X3791500D01*
X3769065Y1391663D01*
X3750045Y1378955D01*
X3737336Y1359935D01*
X3732874Y1337500D01*
Y1262500D01*
X3737336Y1240065D01*
X3750045Y1221045D01*
X3769065Y1208336D01*
X3791500Y1203874D01*
X3866500D01*
X3888935Y1208336D01*
X3907955Y1221045D01*
X3920663Y1240065D01*
X3925126Y1262500D01*
Y1337500D01*
X3920663Y1359935D01*
X3907955Y1378955D01*
X3888935Y1391663D01*
X3866500Y1396126D01*
D02*
G37*
G36*
X3612500D02*
X3537500D01*
X3515065Y1391663D01*
X3496045Y1378955D01*
X3483336Y1359935D01*
X3478874Y1337500D01*
Y1262500D01*
X3483336Y1240065D01*
X3496045Y1221045D01*
X3515065Y1208336D01*
X3537500Y1203874D01*
X3612500D01*
X3634935Y1208336D01*
X3653955Y1221045D01*
X3666663Y1240065D01*
X3671126Y1262500D01*
Y1337500D01*
X3666663Y1359935D01*
X3653955Y1378955D01*
X3634935Y1391663D01*
X3612500Y1396126D01*
D02*
G37*
G36*
X3358500D02*
X3283500D01*
X3261065Y1391663D01*
X3242045Y1378955D01*
X3229336Y1359935D01*
X3224874Y1337500D01*
Y1262500D01*
X3229336Y1240065D01*
X3242045Y1221045D01*
X3261065Y1208336D01*
X3283500Y1203874D01*
X3358500D01*
X3380935Y1208336D01*
X3399955Y1221045D01*
X3412663Y1240065D01*
X3417126Y1262500D01*
Y1337500D01*
X3412663Y1359935D01*
X3399955Y1378955D01*
X3380935Y1391663D01*
X3358500Y1396126D01*
D02*
G37*
G36*
X4941500Y1392126D02*
X4866500D01*
X4844065Y1387663D01*
X4825045Y1374955D01*
X4812337Y1355935D01*
X4807874Y1333500D01*
Y1258500D01*
X4812337Y1236065D01*
X4825045Y1217045D01*
X4844065Y1204336D01*
X4866500Y1199874D01*
X4941500D01*
X4963935Y1204336D01*
X4982955Y1217045D01*
X4995664Y1236065D01*
X5000126Y1258500D01*
Y1333500D01*
X4995664Y1355935D01*
X4982955Y1374955D01*
X4963935Y1387663D01*
X4941500Y1392126D01*
D02*
G37*
G36*
X4687500D02*
X4612500D01*
X4590065Y1387663D01*
X4571045Y1374955D01*
X4558337Y1355935D01*
X4553874Y1333500D01*
Y1258500D01*
X4558337Y1236065D01*
X4571045Y1217045D01*
X4590065Y1204336D01*
X4612500Y1199874D01*
X4687500D01*
X4709935Y1204336D01*
X4728955Y1217045D01*
X4741664Y1236065D01*
X4746126Y1258500D01*
Y1333500D01*
X4741664Y1355935D01*
X4728955Y1374955D01*
X4709935Y1387663D01*
X4687500Y1392126D01*
D02*
G37*
G36*
X4433500D02*
X4358500D01*
X4336065Y1387663D01*
X4317045Y1374955D01*
X4304337Y1355935D01*
X4299874Y1333500D01*
Y1258500D01*
X4304337Y1236065D01*
X4317045Y1217045D01*
X4336065Y1204336D01*
X4358500Y1199874D01*
X4433500D01*
X4455935Y1204336D01*
X4474955Y1217045D01*
X4487664Y1236065D01*
X4492126Y1258500D01*
Y1333500D01*
X4487664Y1355935D01*
X4474955Y1374955D01*
X4455935Y1387663D01*
X4433500Y1392126D01*
D02*
G37*
%LPD*%
D42*
X3096000Y5804000D02*
D03*
X3350000D02*
D03*
Y5550000D02*
D03*
X3096000D02*
D03*
X3721000Y5804000D02*
D03*
X3975000D02*
D03*
Y5550000D02*
D03*
X3721000D02*
D03*
X4371000Y5804000D02*
D03*
X4625000D02*
D03*
Y5550000D02*
D03*
X4371000D02*
D03*
X6675000Y5078999D02*
D03*
X6929000D02*
D03*
Y4824999D02*
D03*
X6675000D02*
D03*
X6421000Y5078999D02*
D03*
Y4824999D02*
D03*
X5654000Y1554000D02*
D03*
X5908000D02*
D03*
Y1300000D02*
D03*
X5654000D02*
D03*
X5400000Y1554000D02*
D03*
Y1300000D02*
D03*
X4650000Y1550000D02*
D03*
X4904000D02*
D03*
Y1296000D02*
D03*
X4650000D02*
D03*
X4396000Y1550000D02*
D03*
Y1296000D02*
D03*
X3575000Y1554000D02*
D03*
X3829000D02*
D03*
Y1300000D02*
D03*
X3575000D02*
D03*
X3321000Y1554000D02*
D03*
Y1300000D02*
D03*
D43*
X5949999Y2125000D02*
D03*
Y2379000D02*
D03*
X6203999D02*
D03*
Y2125000D02*
D03*
X3249999D02*
D03*
Y2379000D02*
D03*
X3503999D02*
D03*
Y2125000D02*
D03*
X2346000D02*
D03*
Y2379000D02*
D03*
X2600000D02*
D03*
Y2125000D02*
D03*
X5049999D02*
D03*
Y2379000D02*
D03*
X5303999D02*
D03*
Y2125000D02*
D03*
X4149999D02*
D03*
Y2379000D02*
D03*
X4403999D02*
D03*
Y2125000D02*
D03*
X6929000Y4475000D02*
D03*
X6675000D02*
D03*
X6421000D02*
D03*
X6167000D02*
D03*
D44*
X2600000Y1550000D02*
D03*
X6600000D02*
D03*
X2600000Y5550000D02*
D03*
X6600000D02*
D03*
D45*
X2603500Y2768600D02*
D03*
X2590800Y2984500D02*
D03*
X5588000Y5892800D02*
D03*
X5041900Y5702300D02*
D03*
X4610100Y4864100D02*
D03*
X4978400Y4686300D02*
D03*
X4178300Y5029200D02*
D03*
X5877560Y3919220D02*
D03*
X5040000Y5940000D02*
D03*
X4220000Y4200000D02*
D03*
X3920000Y4560000D02*
D03*
X4360000Y4550000D02*
D03*
X4200000Y3180000D02*
D03*
Y3700000D02*
D03*
X5700000Y4170000D02*
D03*
X5375000Y4575000D02*
D03*
X5480000Y4560000D02*
D03*
X5332501Y4310000D02*
D03*
X4690000Y4430000D02*
D03*
X6600000Y3010000D02*
D03*
X4300000Y3150000D02*
D03*
X6990000Y2830000D02*
D03*
X6100000Y5520000D02*
D03*
X5300000Y4880000D02*
D03*
X4940000Y4080000D02*
D03*
X4920000Y3760000D02*
D03*
X6230000Y5850000D02*
D03*
X6070000Y3890000D02*
D03*
X5727100Y3272900D02*
D03*
Y3422900D02*
D03*
X6945500Y2345500D02*
D03*
X6475500D02*
D03*
X6700000Y2200000D02*
D03*
X6535000Y3945000D02*
D03*
X5630000Y2610000D02*
D03*
X3925002Y3265002D02*
D03*
X4670000Y4664998D02*
D03*
X5200000Y2630000D02*
D03*
X4975000Y5450000D02*
D03*
Y3125000D02*
D03*
X4275000Y3000000D02*
D03*
X4842285Y3014414D02*
D03*
X5215868Y3715868D02*
D03*
X5775000Y3852900D02*
D03*
X5175001Y4524999D02*
D03*
X4937901Y4575000D02*
D03*
X4775000Y3625000D02*
D03*
X5075000Y3875000D02*
D03*
X5725000Y5525000D02*
D03*
X5100000Y5450000D02*
D03*
X4575000Y3500000D02*
D03*
D46*
X4368800Y4876800D02*
D03*
X3771900Y4826000D02*
D03*
X3530000Y5280000D02*
D03*
D47*
X2387508Y1461983D02*
D03*
X2688017Y1337508D02*
D03*
X2387508Y1638017D02*
D03*
X2511983Y1337508D02*
D03*
Y1762492D02*
D03*
X2812492Y1638017D02*
D03*
Y1461983D02*
D03*
X2688017Y1762492D02*
D03*
X6387508Y1461983D02*
D03*
X6688017Y1337508D02*
D03*
X6511983D02*
D03*
X6812492Y1638017D02*
D03*
X6511983Y1762492D02*
D03*
X6812492Y1461983D02*
D03*
X6688017Y1762492D02*
D03*
X6387508Y1638017D02*
D03*
X2812492Y5638017D02*
D03*
X2387508Y5461983D02*
D03*
Y5638017D02*
D03*
X2511983Y5337507D02*
D03*
Y5762492D02*
D03*
X2688017D02*
D03*
Y5337507D02*
D03*
X2812492Y5461983D02*
D03*
X6511983Y5337507D02*
D03*
X6387508Y5461983D02*
D03*
Y5638017D02*
D03*
X6511983Y5762492D02*
D03*
X6688017D02*
D03*
X6812492Y5638017D02*
D03*
Y5461983D02*
D03*
X6688017Y5337507D02*
D03*
%TF.MD5,01aa2b72e47635b71fb91c3b1b96fc33*%
M02*
